<?xml version="1.0" encoding="utf-8"?>
<!DOCTYPE svg PUBLIC "-//W3C//DTD SVG 1.0//EN" "http://www.w3.org/TR/2001/REC-SVG-20010904/DTD/svg10.dtd">
<svg version="1.0" xmlns="http://www.w3.org/2000/svg" width="1298px" height="890px" viewBox="0 0 1298 890" preserveAspectRatio="xMidYMid meet">
 <g fill="#f5f6fd">
  <path d="M598 868.5 c-24.2 -3.1 -39.9 -7.8 -59.8 -18.1 -21.9 -11.3 -35 -20.9 -47.2 -34.5 -3.6 -4 -7 -7.8 -7.6 -8.4 -3 -2.9 -18 -26.5 -20.6 -32.2 -4.6 -10.3 -10.8 -28.4 -10.8 -31.7 0 -1.7 0.4 -3.6 0.8 -4.2 0.4 -0.5 4.3 -2.3 8.7 -3.8 10.2 -3.6 32.3 -14.2 44 -21.2 9.1 -5.4 22.8 -15.8 27.7 -21 1.4 -1.6 3.7 -4.9 5 -7.2 1.4 -2.5 3.9 -5.2 5.9 -6.2 1.9 -1 8.9 -4.8 15.7 -8.4 9.2 -4.9 13.3 -6.6 16.3 -6.6 l3.9 0 0 4.4 c0 2.4 -1.1 8.6 -2.5 13.8 -6.4 24.7 -24.3 47.9 -47 60.9 -6.3 3.7 -22.5 10.9 -28.7 12.9 -2.1 0.6 -3.8 1.6 -3.8 2.2 0 0.5 1.2 3.3 2.6 6.1 8.9 17.7 31.7 40.7 50.7 51.2 14.6 8 38 15.5 55 17.6 18 2.2 44.2 -1.4 59.2 -8.1 3.3 -1.5 7.1 -3.1 8.5 -3.5 8 -2.5 23.8 -12 36.6 -22.1 9.7 -7.7 26.7 -26.1 32.2 -34.7 4.6 -7.4 16.5 -32 19.1 -39.6 3.9 -11.3 7.1 -26.3 8.2 -38.1 0.6 -6.8 0.9 -39 0.9 -78.5 -0.1 -36.8 -0.1 -67.5 -0.1 -68.2 0.1 -0.6 2.6 -2.3 5.6 -3.8 5.1 -2.3 14.5 -9.2 18.8 -13.7 1.3 -1.3 3.2 -1.8 6.7 -1.8 l5 0 0.2 40.8 c0.5 67.6 -0.7 138.3 -2.5 148.2 -6.6 36.9 -20 65.4 -44.2 93.9 -28.6 33.7 -65.8 54.5 -112 62.6 -13 2.3 -36.6 2.7 -50.5 1z"/>
  <path d="M593.4 823.1 c-26.5 -4.7 -49.5 -16.9 -68.3 -36.1 -9.8 -10.1 -14.1 -16.5 -14.1 -21.2 0 -3.6 0.2 -3.8 6.8 -6.9 15.4 -7.4 31.8 -19.2 42.1 -30.6 16.2 -17.7 29.2 -47.3 30.4 -69.3 l0.2 -4.5 8 -4 c4.4 -2.3 10.2 -5.3 13 -6.8 3.2 -1.7 6.5 -2.7 9.2 -2.7 l4.3 0 0 15.7 c0 18.3 -1.5 28.1 -6.7 43.3 -9.1 26.7 -23.1 46.6 -45.2 64.5 l-7.3 5.9 2.8 2.3 c4.7 3.8 20.3 11.1 28.9 13.5 11.5 3.3 32.5 3.3 43.8 0 22.5 -6.5 39.4 -17.4 55 -35.4 10.2 -12 15.2 -20.2 20.8 -34.6 0.5 -1.3 2.3 -7.6 3.9 -14 4.4 -17.6 5.2 -32.6 4.5 -84.2 -0.3 -24.5 -0.3 -45 0.2 -45.6 0.4 -0.6 4.2 -3.3 8.3 -6 4.1 -2.6 10.8 -7.2 14.7 -10.1 5.6 -4.1 8.1 -5.3 10.9 -5.3 l3.6 0 -0.7 66.3 c-0.3 36.4 -1 70.9 -1.5 76.7 -2.3 26.6 -12.8 53.2 -30.6 77.1 -20 26.9 -51.1 45.7 -86 52 -13.9 2.5 -36.7 2.5 -51 0z"/>
  <path d="M542.5 643.8 c-0.7 -3.9 -0.2 -418.4 0.5 -419.1 0.3 -0.2 18.7 -0.6 41 -0.8 l40.5 -0.4 0.3 17.2 0.2 17.3 -2.6 0.6 c-1.5 0.4 -10 0.4 -18.8 0.1 -8.9 -0.3 -18 -0.3 -20.3 0 l-4.3 0.6 0 186.2 0 186.2 -6.4 3.2 c-3.6 1.7 -10.1 5.2 -14.5 7.6 -5.2 2.9 -9.4 4.5 -11.6 4.5 -3.1 0 -3.5 -0.3 -4 -3.2z"/>
  <path d="M587.6 609.5 c-0.4 -6.3 -0.4 -11.9 -0.1 -12.5 0.4 -0.6 0.6 -23 0.5 -49.8 -0.1 -26.8 -0.2 -63.1 -0.2 -80.7 0.1 -17.6 0.1 -69.7 0.1 -115.7 l0.1 -83.8 18 0 18 0 0 168.3 c0 92.5 -0.3 169.1 -0.6 170.2 -0.7 2.8 -26.7 15.5 -31.6 15.5 l-3.5 0 -0.7 -11.5z"/>
  <path d="M725 383.6 c0 -87.2 0.3 -158.7 0.8 -158.9 0.4 -0.3 18.8 -0.8 41 -1.2 l40.2 -0.7 0 17.6 0 17.6 -21.4 0 c-16.7 0 -21.6 0.3 -22.5 1.3 -0.8 1 -1.2 37.9 -1.4 132.7 -0.2 129.5 -0.3 131.3 -2.2 132.7 -1.1 0.8 -7.6 5 -14.5 9.3 -9.9 6.4 -13.2 8 -16.2 8 l-3.8 0 0 -158.4z"/>
  <path d="M770.7 390.3 c0.2 -67.4 0.4 -122.7 0.5 -122.9 0.2 -0.1 8.3 0 18.1 0.3 l17.7 0.6 -0.1 110.6 c-0.1 60.8 -0.4 111.7 -0.8 113 -0.4 1.5 -3 3.8 -7.1 6.3 -3.6 2.2 -9.7 6.4 -13.7 9.4 -5.8 4.3 -8 5.4 -11 5.4 l-3.8 0 0.2 -122.7z"/>
 </g>
 <g fill="#d5d5f3">
  <path d="M598.1 870.5 c-7.4 -0.7 -15 -1.7 -17 -2.3 -2 -0.6 -7.6 -2.1 -12.6 -3.5 -28.4 -7.9 -49.8 -20 -71.5 -40.4 -15.5 -14.7 -29.4 -33.2 -36.4 -48.6 -5.8 -12.8 -10.7 -28.6 -10.4 -33.6 0.3 -4.3 0.5 -4.6 4.3 -5.9 14.3 -5 42.9 -18.6 54.2 -25.9 12.5 -7.9 23.8 -17.9 29 -25.5 2.5 -3.7 4 -4.8 6.7 -5.4 2 -0.3 3.6 -1 3.6 -1.5 0 -1.5 9.8 -5.9 13.1 -5.9 5.1 0 3 2.1 -7.6 7.6 -8.5 4.4 -10.1 5.7 -12.2 9.5 -3.2 5.7 -6.1 8.7 -15.8 16.5 -13.9 11.2 -42.4 26.6 -61.2 33.1 -4.6 1.5 -8.5 3.3 -8.7 4 -0.6 1.4 5.9 20 10.2 29.6 2.6 5.7 17.6 29.3 20.6 32.2 0.6 0.6 4 4.4 7.6 8.4 11.9 13.3 25 23 46.3 34.1 20.9 10.9 36.6 15.6 62.7 18.6 37.1 4.2 79 -6.1 113.5 -27.9 16.8 -10.7 27.9 -20.3 41 -35.8 24.2 -28.5 37.5 -56.8 44.2 -93.9 1.8 -9.9 3 -76 2.5 -142.7 -0.2 -39.2 -0.3 -40.3 -2.2 -40.3 -1 0 -2.7 0.8 -3.7 1.8 -4.3 4.5 -13.7 11.4 -18.8 13.7 -3 1.5 -5.5 3.2 -5.5 3.8 -0.1 0.7 0 31.4 0 68.2 0 38.2 -0.4 71.9 -1 78.5 -1 11.8 -4.2 26.8 -8.1 38.1 -2.6 7.6 -14.5 32.2 -19.1 39.6 -5.5 8.6 -22.5 27 -32.2 34.7 -12.8 10.1 -28.6 19.6 -36.6 22.1 -1.4 0.4 -5.2 2 -8.5 3.5 -15.5 7 -44 10.6 -64.7 8.1 -17.2 -2 -40.7 -9.5 -55.5 -17.6 -20.9 -11.5 -45.3 -37.3 -53.2 -56.3 -2.6 -6.2 -2.1 -7.4 3.7 -9.3 6.2 -1.9 22.4 -9.2 28.7 -12.8 23.3 -13.3 41.5 -37.4 47.6 -62.9 1.2 -5 1.9 -9.5 1.5 -9.9 -0.4 -0.4 -2.9 0.5 -5.6 2 -5.9 3.3 -6 3.3 -6 0.3 0 -1.7 0.7 -2.7 2.2 -3.2 1.2 -0.3 3.1 -1.5 4.2 -2.5 1.3 -1.3 3.5 -1.9 6.3 -1.9 4.1 0 4.3 0.1 4.3 3 0 5.7 -5 24.3 -9 33.2 -11.1 25 -31.8 44.1 -60.7 55.7 -5.5 2.3 -10.6 4.1 -11.2 4.1 -2.1 0 -1.1 3.5 2.9 9.9 9.9 15.5 25.4 31.5 39.5 40.7 8 5.2 24.3 13.4 26.6 13.4 0.6 0 2.5 0.7 4.2 1.5 5.1 2.3 19.6 6.2 28.2 7.5 17 2.6 41.4 -0.5 63 -7.9 30 -10.4 62.1 -36.8 78.8 -64.7 7.6 -12.7 15.4 -31.6 19.1 -45.9 4.1 -16.2 4.5 -24.7 5.1 -99.5 0.5 -67.5 0.6 -72.6 2.3 -73.8 5.7 -4.4 24.5 -16.2 25.8 -16.2 0.7 0 1.4 -0.5 1.4 -1.1 0 -3.3 9.5 -5.5 10.6 -2.4 0.3 0.8 0.1 42.3 -0.4 92.2 -1 85.9 -1.2 91.4 -3.2 101.8 -7.9 41.1 -23.6 71.5 -52 100.9 -18 18.6 -35.3 30.6 -59 40.8 -9.3 4 -25.1 9.2 -31.5 10.4 -2.2 0.3 -4.7 1 -5.6 1.5 -2.2 1.1 -31.7 3.9 -39.4 3.8 -3.3 -0.1 -12 -0.7 -19.4 -1.4z"/>
  <path d="M601 826.6 c-4.7 -0.6 -9 -1.4 -9.5 -1.8 -0.6 -0.3 -2.8 -0.9 -5 -1.3 -11.6 -2 -19.8 -5.1 -32.5 -12.4 -17.3 -9.9 -29.5 -20.4 -39.9 -34.5 -4.3 -5.8 -5.1 -7.6 -5.1 -11.2 l0 -4.3 9.2 -4.6 c22.2 -11.2 41.8 -28.3 52 -45.5 9.7 -16.4 15.6 -33.1 17.4 -49.2 0.4 -3.5 1 -6.8 1.5 -7.4 0.5 -0.6 3.5 -1.9 6.6 -3 3.2 -1 6.4 -2.5 7.1 -3.1 0.7 -0.7 1.9 -1.3 2.7 -1.3 0.7 0 1.5 -0.3 1.7 -0.8 0.2 -0.4 2.7 -2.4 5.6 -4.5 3.9 -2.8 6.2 -3.7 9.2 -3.7 l4 0 0 16.9 c0 19 -1.4 29.2 -6.1 44.6 -8 26 -21.3 45.8 -43.1 64.2 -4.3 3.7 -7.5 7 -7.1 7.4 2.1 2.1 17.4 10.1 22.8 11.9 3.3 1.1 10.7 2.6 16.4 3.3 10.7 1.4 19.9 0.7 32.1 -2.3 2.5 -0.6 6.3 -1.6 8.5 -2.1 2.1 -0.6 4.4 -1.4 5 -1.9 0.5 -0.4 4.6 -2.7 9 -5.1 31.1 -16.5 49.9 -43.7 57.1 -82.4 1.4 -7.4 1.8 -18.8 2.3 -64.5 l0.6 -55.4 3 -1.6 c1.7 -0.8 3.2 -1.8 3.3 -2.2 0.5 -1.1 7.2 -1 7.2 0 0 0.4 -1.3 1.6 -3 2.5 -6.3 3.8 -5.9 0.5 -5.4 49 0.6 51.7 -0.2 67.6 -4.6 84.9 -1.6 6.4 -3.4 12.7 -3.9 14 -5.6 14.4 -10.6 22.6 -20.8 34.6 -23.9 27.7 -56.7 41.5 -90.3 38 -14.6 -1.6 -32.1 -8 -42.7 -15.7 -6.5 -4.7 -6 -6.6 4 -14.7 12.3 -10.2 19.6 -17.9 26.9 -28.4 11.4 -16.4 19.9 -36.6 23.2 -55.1 2 -10.7 2.2 -33.9 0.3 -33.9 -0.6 0 -3.5 1.2 -6.2 2.7 -2.8 1.5 -8.6 4.5 -13 6.8 l-8 4 -0.2 4.5 c-1.2 22 -14.2 51.6 -30.4 69.3 -10.3 11.4 -26.7 23.2 -42.1 30.6 -3.8 1.8 -6.8 3.5 -6.8 3.9 0 1.8 7.4 11.4 14.1 18.2 44 45.1 113.4 50.6 169 13.4 32.1 -21.5 57 -64.7 60.9 -105.6 0.5 -5.3 1 -27.6 1 -49.6 0.1 -22 0.4 -40.9 0.7 -42.1 0.3 -1.2 1.2 -2.1 1.9 -2.1 1.2 0 1.4 7 1.4 42.9 0 57.4 -1.2 68.1 -10.6 92.8 -7.6 20.1 -16.7 35.1 -29.2 48.5 -19.9 21.1 -43 34.3 -72.7 41.7 -16.3 4 -32.6 4.9 -49.5 2.7z"/>
  <path d="M539.5 649.8 c-0.3 -0.7 -0.4 -97.1 -0.3 -214.3 l0.3 -213 43.3 -0.3 43.2 -0.2 0 19.3 0 19.4 -5.4 0.6 c-3 0.3 -13.3 0.3 -23 0 -12.9 -0.5 -17.6 -0.3 -17.6 0.5 0 0.7 -0.9 1.2 -2 1.2 -1.6 0 -2 -0.7 -2 -3.4 0 -3.3 0.1 -3.4 5.5 -4.1 3 -0.3 12.2 -0.3 20.4 0.1 8.2 0.4 16.1 0.4 17.5 0 l2.7 -0.7 -0.3 -14.2 -0.3 -14.2 -37.5 0.4 c-20.6 0.2 -37.7 0.6 -38 0.8 -0.7 0.7 -0.6 415 0.1 415.8 0.4 0.3 4.4 -1.4 8.9 -3.9 4.5 -2.5 11 -6 14.6 -7.7 3.5 -1.8 6.4 -3.8 6.4 -4.5 0 -0.8 0.7 -1.4 1.5 -1.4 1 0 1.5 1.1 1.5 3.5 0 2.8 -0.5 3.7 -2.4 4.5 -3.3 1.2 -20.1 10.7 -25.3 14.2 -4.4 3 -11 3.8 -11.8 1.6z"/>
  <path d="M585.7 582.8 c-0.8 -50.8 -0.7 -268 0.2 -296.8 l0.6 -20.5 19.5 0 19.5 0 0.3 165.5 c0.2 91 0 168.3 -0.3 171.8 -0.5 4.6 -1.1 6.5 -2.3 6.8 -3.8 1.2 -12.1 5.2 -21.1 10.2 -5.8 3.1 -10.7 5.2 -12.6 5.2 l-3.2 0 -0.6 -42.2z m20.4 28.5 c9.6 -4.7 14 -7.4 14.3 -8.8 0.3 -1.1 0.6 -76.4 0.6 -167.2 l0 -165.3 -15 0 -15 0 0 84.3 c-0.1 120.4 0 168.2 0.3 192.7 0.2 11.8 0.1 29.2 -0.2 38.5 -0.6 17.3 -0.3 32.5 0.7 32.5 0.3 0 6.7 -3 14.3 -6.7z"/>
  <path d="M760 574.9 c0 -18.4 -0.2 -21 -1.5 -20.5 -1 0.4 -1.5 -0.1 -1.5 -1.4 0 -1.6 0.7 -2 3.5 -2 l3.5 0 0 22.5 c0 21.8 -0.1 22.5 -2 22.5 -1.9 0 -2 -0.7 -2 -21.1z"/>
  <path d="M738 565.5 c0 -2.2 0.4 -2.5 3.5 -2.5 4.3 0 4.4 1 0.6 3.3 -3.8 2.2 -4.1 2.2 -4.1 -0.8z"/>
  <path d="M723 544.8 c-0.7 -5.6 -1 -167.2 -0.5 -232.5 l0.7 -90.2 42.2 -0.3 c23.1 -0.2 42.2 -0.3 42.2 -0.3 0.1 0 0.5 8.1 0.9 18.1 0.6 16.1 0.5 18.2 -1 19.7 -1.4 1.5 -4.4 1.7 -22.6 1.7 -11.5 0 -21 0.1 -21.1 0.3 -0.2 0.1 -0.5 59.4 -0.8 131.7 l-0.5 131.5 -8 5.3 c-18.8 12.4 -23.8 15.2 -27.7 15.2 -2.1 0 -3.8 -0.1 -3.8 -0.2z m19.4 -14 c6.1 -3.9 12.2 -7.8 13.5 -8.7 l2.4 -1.6 0.3 -131.4 c0.3 -96.3 0.7 -131.7 1.5 -132.7 0.9 -1.1 5.6 -1.4 22.5 -1.4 l21.4 0 0 -14.5 0 -14.5 -36.7 0.6 c-20.3 0.3 -37.4 0.7 -38 1 -1 0.3 -1.3 32.3 -1.3 156 0 143.1 0.1 155.6 1.6 155 0.9 -0.4 6.7 -3.8 12.8 -7.8z"/>
  <path d="M768.9 497.3 c-0.4 -72.8 0 -230.3 0.6 -231.3 0.6 -1 5 -1.1 19.4 -0.6 10.2 0.4 18.8 0.9 18.9 1.1 0.6 0.6 0.1 226.5 -0.4 228 -0.3 0.8 -3.4 3 -6.7 4.9 -3.4 1.9 -10.2 6.2 -15.1 9.5 -7.1 4.9 -9.6 6.1 -12.7 6.1 l-3.9 0 -0.1 -17.7z m13.4 7.3 c4 -3 10.1 -7.2 13.7 -9.4 4.1 -2.5 6.7 -4.8 7.1 -6.3 0.4 -1.3 0.7 -50.8 0.8 -110.1 l0.1 -107.6 -14.7 -0.4 c-8.2 -0.1 -14.9 -0.1 -15 0.2 -0.7 1.4 -0.7 239 0 239 0.4 0 4 -2.4 8 -5.4z"/>
  <path d="M1195 327.5 c0 -3.3 0.2 -3.5 3.5 -3.5 3.3 0 3.5 0.2 3.5 3.5 0 3.3 -0.2 3.5 -3.5 3.5 -3.3 0 -3.5 -0.2 -3.5 -3.5z"/>
 </g>
 <g fill="#f38b54">
  <path d="M246 762.5 c0 -3.3 0.2 -3.5 3.5 -3.5 3.3 0 3.5 0.2 3.5 3.5 0 3.3 -0.2 3.5 -3.5 3.5 -3.3 0 -3.5 -0.2 -3.5 -3.5z"/>
  <path d="M545 680.6 c0 -2.6 1.6 -3.6 6.1 -3.6 4 0 3.6 1.2 -1 3.8 -4.8 2.7 -5.1 2.7 -5.1 -0.2z"/>
  <path d="M490 677.5 c0 -3.4 0.1 -3.5 4 -3.5 3.9 0 4 0.1 4 3.5 0 3.4 -0.1 3.5 -4 3.5 -3.9 0 -4 -0.1 -4 -3.5z"/>
  <path d="M557 674.2 c0 -2.4 0.6 -2.9 4.5 -4.1 2.5 -0.7 4.5 -1.7 4.5 -2.2 0 -0.5 1.1 -1.1 2.5 -1.5 1.4 -0.3 2.5 -1 2.5 -1.5 0 -0.5 1.6 -0.9 3.5 -0.9 1.9 0 3.5 0.3 3.5 0.8 0 1 -12.4 8.5 -17.2 10.6 l-3.8 1.5 0 -2.7z"/>
  <path d="M594 653.8 c0 -1.9 1.3 -2.9 7 -5.3 3.8 -1.6 7 -3.3 7 -3.7 0 -1.1 7 -1 7 0 0 1.4 -17.9 11.2 -20.6 11.2 -0.2 0 -0.4 -1 -0.4 -2.2z"/>
  <path d="M728 571.6 c0 -1.8 1.4 -3.2 5.9 -6 3.3 -2 9.3 -6.3 13.3 -9.6 6.4 -5.2 7.8 -6 11.6 -6 4.1 0 4.2 0 4.2 3.5 0 1.9 -0.4 3.5 -1 3.5 -0.5 0 -1 -0.7 -1 -1.5 0 -2.5 -1.6 -1.8 -9.3 3.8 -7.5 5.6 -21.9 14.7 -23 14.7 -0.4 0 -0.7 -1.1 -0.7 -2.4z"/>
  <path d="M796.2 524.8 c0.3 -3 0.6 -3.3 4.1 -3.6 4.8 -0.4 4.7 0.9 -0.4 4.2 l-4 2.7 0.3 -3.3z"/>
  <path d="M909 427 l0 -4 4 0 4 0 0 4 0 4 -4 0 -4 0 0 -4z"/>
  <path d="M1181.3 340.8 c-1.9 -2.5 -3.2 -7.4 -5.3 -19.1 -1.2 -6.5 -2.3 -12.4 -2.6 -13.2 -0.3 -0.7 -1.8 -7.6 -3.4 -15.2 -2.7 -12.8 -5.7 -25.8 -10.8 -45.8 -1.1 -4.4 -2.3 -10 -2.7 -12.5 -1.1 -7.5 -6.6 -33.2 -8.2 -38 -3.1 -9.6 -4.3 -14.6 -4.3 -18.6 0 -4 0.6 -4.8 10.8 -15.6 10.3 -10.7 17.8 -18.9 23.1 -25.4 4.3 -5.2 13.6 -15.9 14.2 -16.4 0.3 -0.3 1.4 -2 2.3 -3.8 0.9 -1.8 2.4 -3.6 3.1 -3.9 1.6 -0.5 12 -13.3 10.9 -13.3 -0.3 0 -6.9 4.4 -14.6 9.8 -7.8 5.3 -16.2 11.1 -18.8 12.7 -10.3 6.6 -15.5 10 -27.6 18.1 -14.2 9.4 -15.7 9.8 -26.3 6.5 -3.4 -1 -12.8 -5.5 -21 -10 -8.2 -4.5 -15.2 -8.1 -15.6 -8.1 -0.4 0 -3.9 -2 -7.8 -4.3 -7.7 -4.7 -15.6 -9 -30.7 -16.9 -5.2 -2.8 -9.9 -5.4 -10.5 -5.8 -0.5 -0.4 -4.8 -2.8 -9.5 -5.2 -4.7 -2.5 -12.5 -6.8 -17.5 -9.6 -4.9 -2.9 -9.7 -5.2 -10.6 -5.2 -0.9 0 -2.2 -0.7 -2.9 -1.5 -0.7 -0.8 -2 -1.5 -2.9 -1.5 -0.9 0 -4.6 -1.9 -8.2 -4.3 -3.5 -2.3 -8.6 -5.3 -11.2 -6.7 -4.6 -2.4 -4.8 -2.7 -4.5 -6.4 0.3 -3.7 0.7 -4.1 9.3 -9.7 5 -3.1 13.4 -8 18.7 -10.8 13 -6.8 15.8 -6.8 38.4 0 9.3 2.9 19.8 6 23.4 6.9 3.6 1 13.5 4 22 6.8 8.5 2.8 23.6 7.4 33.5 10.2 9.9 2.9 19.9 5.8 22.3 6.6 2.3 0.8 5.3 1.4 6.5 1.4 1.2 0 4.9 1.2 8.2 2.6 3.3 1.4 9.6 3.4 13.9 4.4 l7.9 1.8 7.3 -4.4 c4 -2.4 7.6 -4.4 8.1 -4.4 1.4 -0.1 11.5 -5.4 21.3 -11.3 10.3 -6.1 20.3 -10.1 29.6 -11.6 3.2 -0.5 8.3 -1.9 11.2 -3 2.9 -1.2 7.5 -2.1 10.2 -2.1 l5 0 0 4.3 c0 2.4 -0.4 4.7 -0.9 5.3 -0.4 0.5 -3.3 5.6 -6.3 11.4 -3.1 5.8 -6.8 12.6 -8.4 15.2 -1.6 2.6 -6.9 11.4 -11.8 19.5 -4.9 8.2 -10.4 17.1 -12.3 20 -1.8 2.8 -3.3 5.4 -3.3 5.7 0 0.3 -1.3 3.3 -2.9 6.8 -1.6 3.5 -3.4 7.9 -4 9.8 -1.2 3.7 -3.3 51.5 -5.1 117.5 -1.1 41.1 -2.4 61.6 -4.2 65.1 -0.5 1.2 -2.1 2.7 -3.4 3.3 -1.3 0.6 -2.4 1.7 -2.4 2.6 0 0.8 -1.3 2.3 -3 3.3 -1.6 1 -3.9 3 -5 4.5 -1.7 2.1 -3 2.7 -6 2.7 -2 0 -4.2 -0.6 -4.7 -1.2z"/>
  <path d="M1097.8 252.9 c-1.5 -2.2 -2.9 -5.9 -3.3 -8.2 -0.4 -2.3 -1.8 -7.6 -3.2 -11.7 -1.3 -4.1 -2.7 -10.8 -3 -14.7 l-0.6 -7.3 -4.9 0 c-4.5 0 -16.2 -2.8 -21.3 -5 -1.1 -0.5 -9 -2.8 -17.5 -5 -8.5 -2.3 -16.3 -4.5 -17.2 -5 -1 -0.6 -2.5 -1 -3.3 -1 -1.1 0 -1.5 -1.1 -1.5 -3.9 l0 -3.9 9.3 -3.7 c8.5 -3.4 9.7 -3.7 16 -3.1 3.8 0.3 11 1.5 16 2.6 5.1 1 13.3 2.6 18.2 3.5 5 0.8 10.9 2.2 13.3 3.1 3.6 1.4 4.2 2 4.2 4.5 0 2.7 0.3 2.9 3.9 2.9 3.9 0 3.9 0 5.1 5.3 1.5 6.7 4.9 37.6 5 44.3 0 7.1 -2.6 10.4 -8.3 10.4 -3.9 0 -4.5 -0.4 -6.9 -4.1z"/>
 </g>
 <g fill="#34a0c7">
  <path d="M595.1 870.9 c-10.7 -1.2 -18.5 -3 -34.3 -8 -11.6 -3.7 -12.8 -4.3 -12.8 -6.4 0 -2.7 -1.1 -2.9 15.9 3 5.8 1.9 12.3 3.8 14.5 4.2 2.3 0.3 4.8 1 5.8 1.4 0.9 0.5 7.2 1.3 14 1.9 16.9 1.5 18.8 1.8 18.8 3.5 0 1.7 -7.7 1.8 -21.9 0.4z"/>
  <path d="M622 870.6 c0 -1.7 2.4 -2.2 13.3 -3.1 7.2 -0.6 7.7 -0.5 7.7 1.3 0 1.6 -1 2 -6.7 2.5 -10.9 1.1 -14.3 0.9 -14.3 -0.7z"/>
  <path d="M644 868.5 c0 -0.9 1.4 -1.6 3.8 -2 2 -0.4 4.8 -1 6.2 -1.5 1.4 -0.5 4.1 -1.2 6 -1.5 9.7 -1.9 25.7 -7.6 41.6 -15.1 7 -3.3 23.2 -13.7 32.7 -20.9 l4.7 -3.7 0 3.1 c0 2.4 -0.4 3.1 -2 3.1 -1.1 0 -2 0.7 -2 1.5 0 0.9 -0.9 1.5 -2.5 1.5 -1.8 0 -2.5 0.5 -2.5 2 0 1.1 -0.7 2 -1.5 2 -0.8 0 -1.5 0.5 -1.5 1 0 0.6 -0.7 1 -1.5 1 -0.8 0 -1.5 0.5 -1.5 1 0 0.6 -0.7 1 -1.5 1 -0.8 0 -1.5 0.5 -1.5 1 0 0.6 -0.7 1 -1.5 1 -0.8 0 -1.5 0.5 -1.5 1 0 0.6 -1.1 1 -2.5 1 -1.5 0 -2.5 0.6 -2.5 1.4 0 1.5 -2.1 2.6 -5.1 2.6 -1 0 -1.9 0.6 -1.9 1.3 0 0.7 -3 2.5 -6.7 4.1 -3.8 1.6 -8.1 3.5 -9.8 4.2 -10.1 4.3 -36.3 11.4 -42.4 11.4 -2 0 -3.1 -0.5 -3.1 -1.5z"/>
  <path d="M531.3 850.3 c-0.7 -0.2 -1.3 -1.1 -1.3 -1.9 0 -0.8 -1 -1.4 -2.5 -1.4 -1.6 0 -2.5 -0.6 -2.5 -1.5 0 -0.9 -0.9 -1.5 -2.5 -1.5 -2 0 -2.5 -0.5 -2.5 -2.5 0 -2.2 -0.4 -2.5 -3.5 -2.5 -2.4 0 -3.5 -0.5 -3.5 -1.5 0 -0.8 -0.9 -1.5 -2 -1.5 -1.3 0 -2 -0.7 -2 -2 0 -1.4 -0.7 -2 -2.3 -2 -3.1 0 -4.7 -1.8 -4.7 -5.3 l0 -3 3.3 2.7 c9.1 7.5 19.4 14.9 26.2 18.7 4.1 2.4 7.5 4.7 7.5 5.1 0 0.9 -5.7 1 -7.7 0.1z"/>
  <path d="M596.2 834.5 c-8.1 -1.5 -20.1 -4.9 -24.9 -7.1 -1.7 -0.8 -3.6 -1.4 -4.2 -1.4 -4.6 0 -30.2 -14.8 -38.6 -22.3 l-4 -3.6 3.8 -0.1 c3.1 0 4 0.4 4.4 2 0.3 1.1 1.1 2 1.9 2 0.7 0 4.8 2.3 9.1 5.1 10.2 6.7 21.3 11.8 34.8 16.2 16.2 5.3 24.5 6.7 40 6.7 10.8 0 13.5 0.3 13.5 1.4 0 0.7 -1 1.6 -2.2 2 -4 1 -26.1 0.5 -33.6 -0.9z"/>
  <path d="M634 833.2 c0 -1.5 1.4 -2 7.8 -3.1 10.6 -1.8 28.2 -7.5 37.2 -12.2 4.2 -2.1 7.9 -3.9 8.3 -3.9 0.4 0 1.8 -0.9 3 -2 1.2 -1.2 3.2 -2.3 4.4 -2.6 1.3 -0.4 2.3 -1 2.3 -1.5 0 -0.5 0.7 -0.9 1.5 -0.9 0.8 0 1.5 -0.4 1.5 -1 0 -0.5 0.7 -1 1.5 -1 0.8 0 1.5 -0.4 1.5 -1 0 -0.5 0.9 -1 2 -1 1.1 0 2 -0.7 2 -1.5 0 -0.9 0.9 -1.5 2.4 -1.5 1.8 0 2.5 -0.6 2.8 -2.2 0.2 -1.9 1 -2.3 4.3 -2.6 l4 -0.2 -4.5 4 c-2.5 2.2 -8.3 6.7 -13 9.9 -17.7 12.1 -32.4 18.6 -53.7 23.7 -12.5 2.9 -15.3 3 -15.3 0.6z"/>
  <path d="M598 826.5 c-10.5 -1.5 -25.4 -5.3 -25.8 -6.6 -0.2 -0.5 -1.2 -0.9 -2.2 -0.9 -2.6 0 -6.1 -1.6 -16.2 -7.4 -4.9 -2.8 -8.8 -5.6 -8.8 -6.3 0 -0.7 -0.9 -1.3 -2 -1.3 -1.1 0 -2 -0.7 -2 -1.5 0 -0.8 -0.9 -1.5 -2 -1.5 -1.1 0 -2 -0.7 -2 -1.5 0 -0.8 -0.9 -1.5 -2 -1.5 -1.6 0 -2 -0.7 -2 -3.1 0 -2.4 0.3 -2.9 1.3 -2.2 10 7.7 14.7 10.8 22.7 15.4 12.8 7.3 20.9 10.4 32.5 12.4 2.2 0.4 4.6 1.2 5.4 1.8 0.8 0.7 1.5 1 1.5 0.8 0.1 -0.4 13 0.8 16.4 1.6 1.2 0.3 2.2 1.1 2.2 1.9 0 1.7 -4.9 1.7 -17 -0.1z"/>
  <path d="M622 826.6 c0 -1.5 2.1 -2.1 11.5 -3.1 11.6 -1.2 26.4 -5.5 41.3 -11.9 4.6 -2 8.6 -3.6 8.8 -3.6 0.2 0 0.4 1 0.4 2.3 0 1.8 -1.4 2.8 -8.8 5.9 -12 5 -24.7 8.6 -37.1 10.3 -13.2 1.9 -16.1 1.9 -16.1 0.1z"/>
  <path d="M750.6 811.8 c8.6 -8.8 17.9 -20.2 22.9 -28.1 1.7 -2.6 3.3 -4.7 3.8 -4.7 0.4 0 0.7 1.6 0.7 3.5 0 1.9 -0.4 3.5 -1 3.5 -0.5 0 -1 0.7 -1 1.5 0 0.8 -0.4 1.5 -1 1.5 -0.5 0 -1 0.7 -1 1.5 0 0.8 -0.7 1.5 -1.5 1.5 -0.8 0 -1.5 0.9 -1.5 2 0 1.1 -0.7 2 -1.5 2 -0.9 0 -1.5 0.9 -1.5 2.1 0 1.2 -0.8 2.3 -1.9 2.6 -1.1 0.3 -2.1 1.5 -2.3 2.7 -0.2 1.6 -1.1 2.2 -3.5 2.4 -3 0.3 -3.3 0.6 -3.3 3.6 0 4.5 -6.4 10.6 -11.1 10.6 l-3.4 0 8.1 -8.2z"/>
  <path d="M483 808.5 c0 -1.8 -0.5 -2.5 -2 -2.5 -1.5 0 -2 -0.7 -2 -2.5 0 -1.8 -0.5 -2.5 -2 -2.5 -1.3 0 -2 -0.7 -2 -2 0 -1.1 -0.7 -2 -1.5 -2 -0.8 0 -1.5 -0.7 -1.5 -1.5 0 -0.8 -0.4 -1.5 -1 -1.5 -0.5 0 -1 -0.7 -1 -1.5 0 -0.8 -0.4 -1.5 -1 -1.5 -0.5 0 -1 -1.6 -1 -3.5 0 -1.9 0.3 -3.5 0.8 -3.5 0.4 0 2 2.1 3.7 4.7 1.6 2.7 5.7 8.2 8.9 12.3 3.2 4.1 6.3 8.1 6.9 8.8 0.7 0.9 0.2 1.2 -2.2 1.2 -2.6 0 -3.1 -0.4 -3.1 -2.5z"/>
  <path d="M686 807.3 c0 -0.5 3 -2.7 6.5 -5.1 l6.5 -4.2 0 3 c0 2 -0.5 3 -1.5 3 -0.8 0 -1.5 0.5 -1.5 1 0 0.6 -0.7 1 -1.5 1 -0.8 0 -1.5 0.5 -1.5 1 0 0.6 -1.6 1 -3.5 1 -1.9 0 -3.5 -0.3 -3.5 -0.7z"/>
  <path d="M700.8 796.7 c0.6 -0.7 3.2 -2.8 5.7 -4.6 l4.5 -3.2 0 3 c0 2.4 -0.4 3.1 -2 3.1 -1.1 0 -2 0.7 -2 1.5 0 1.1 -1.1 1.5 -3.6 1.5 -2.9 0 -3.4 -0.3 -2.6 -1.3z"/>
  <path d="M514.9 790.3 c-4.8 -5.2 -13.5 -17.3 -16.3 -22.6 l-2.7 -5.2 2.2 -0.3 c2.5 -0.4 3.9 1.2 3.9 4.6 0 1.3 0.6 2.2 1.5 2.2 0.8 0 1.5 0.7 1.5 1.5 0 0.8 0.5 1.5 1 1.5 0.6 0 1 0.7 1 1.5 0 0.8 0.5 1.5 1 1.5 0.6 0 1 1.1 1 2.5 0 1.8 0.5 2.5 2 2.5 1.3 0 2 0.7 2 2 0 1.1 0.6 2 1.4 2 2.2 0 3.8 2.7 3.4 6 l-0.3 3.2 -2.6 -2.9z"/>
  <path d="M614.3 790.3 c-0.7 -0.2 -1.3 -1.1 -1.3 -1.9 0 -1 1.5 -1.4 5.8 -1.4 3.1 -0.1 9.3 -0.7 13.7 -1.6 4.4 -0.8 9.8 -1.8 12 -2.1 2.2 -0.3 4.5 -1.1 5.1 -1.8 0.6 -0.6 3.1 -1.7 5.5 -2.5 2.4 -0.8 5 -2 5.7 -2.7 0.7 -0.7 2.9 -1.3 4.8 -1.3 2.7 0 3.4 -0.4 3.4 -1.9 0 -1.2 1.2 -2.5 3 -3.3 1.7 -0.7 3 -1.6 3 -2 0 -0.5 0.6 -0.8 1.4 -0.8 0.8 0 1.6 -0.7 2 -1.5 0.3 -0.8 1.5 -1.5 2.6 -1.5 1.1 0 2 -0.6 2 -1.3 0 -1.9 10.3 -11.7 12.3 -11.7 1.1 0 1.7 -0.8 1.7 -2.5 0 -2.1 0.5 -2.5 3.1 -2.5 l3 0 -2.1 3 c-7.5 10.5 -20.5 21.5 -34.5 29 -4.4 2.4 -9.1 4.9 -10.5 5.6 -1.4 0.8 -3.4 1.4 -4.5 1.4 -1.1 0 -2.9 0.6 -4 1.4 -1.1 0.7 -3.1 1.4 -4.5 1.4 -1.4 0 -7 0.8 -12.5 1.6 -10.2 1.6 -14 1.8 -16.2 0.9z"/>
  <path d="M605.8 789.3 c-3.6 -0.9 -2 -3.3 2.2 -3.3 3.3 0 4 0.3 4 2 0 2 -2 2.4 -6.2 1.3z"/>
  <path d="M594 787.4 c-7.2 -1.8 -22.8 -9.7 -27.7 -13.8 l-3.8 -3.3 3.5 -2.9 c1.9 -1.6 5.7 -4.8 8.5 -7.2 l5 -4.3 0.3 2.6 c0.4 3.3 -1.3 5.5 -4.4 5.5 -1.7 0 -2.4 0.6 -2.4 2 0 1.2 -0.9 2.4 -2.1 2.9 -2.1 0.7 -2 0.9 1.2 3.1 1.9 1.3 3.6 2.7 3.9 3 0.9 1 17.7 7.9 22.4 9.2 3.3 0.9 4.6 1.7 4.6 3 0 2.1 -1.5 2.2 -9 0.2z"/>
  <path d="M729.2 782.4 c0.2 -3.2 0.7 -4 2.6 -4.2 1.6 -0.3 2.2 -1 2.2 -2.8 0 -1.5 0.6 -2.4 1.5 -2.4 0.8 0 1.5 -0.9 1.5 -2 0 -1.1 0.5 -2 1 -2 0.6 0 1 -0.6 1 -1.3 0 -0.7 0.9 -2.3 2 -3.5 1.1 -1.2 2 -2.6 2 -3.2 0 -0.5 0.7 -1 1.5 -1 0.8 0 1.5 -0.9 1.5 -1.9 0 -3.5 1.2 -5.1 3.6 -5.1 1.3 0 2.4 0.3 2.4 0.7 0 2.7 -18.8 29.8 -22.1 31.9 -0.7 0.4 -0.9 -0.7 -0.7 -3.2z"/>
  <path d="M517.2 781.8 c-0.7 -0.7 -1.2 -1.8 -1.2 -2.5 0 -0.7 -0.4 -1.3 -1 -1.3 -0.5 0 -1 -0.6 -1 -1.4 0 -0.8 -0.5 -1.6 -1.1 -1.8 -0.6 -0.2 -0.9 -1.9 -0.7 -3.8 l0.3 -3.5 4.9 6.5 c2.7 3.6 5.3 7.1 5.9 7.8 1.3 1.6 -4.4 1.7 -6.1 0z"/>
  <path d="M779 775.4 c0 -1.3 5.4 -10.4 6.2 -10.4 1.2 0 1 5.5 -0.4 8.5 -0.7 1.6 -1.9 2.5 -3.5 2.5 -1.2 0 -2.3 -0.3 -2.3 -0.6z"/>
  <path d="M459 770.5 c0 -2.3 -0.5 -3.5 -1.3 -3.5 -1.5 0 -3.7 -6.2 -3.7 -10.4 0 -4.7 2.3 -2.4 5.1 5 1.4 3.8 3.1 8.1 3.7 9.7 1.1 2.5 1 2.7 -1.3 2.7 -2.2 0 -2.5 -0.4 -2.5 -3.5z"/>
  <path d="M729 769 c3.1 -4.4 4 -4.5 4 -0.6 0 3.3 -0.2 3.6 -3.1 3.6 l-3 0 2.1 -3z"/>
  <path d="M511.1 762.9 c-0.1 -3.8 1 -4.9 5 -4.9 1 0 1.9 -0.4 1.9 -1 0 -0.5 1.6 -1 3.5 -1 2.8 0 3.5 -0.4 3.5 -2 0 -1.3 0.9 -2.2 2.5 -2.6 1.4 -0.3 2.5 -1 2.5 -1.5 0 -0.5 0.7 -0.9 1.5 -0.9 0.8 0 1.5 -0.4 1.5 -1 0 -0.5 0.7 -1 1.5 -1 0.8 0 1.5 -0.4 1.5 -1 0 -0.5 0.6 -1 1.4 -1 0.8 0 1.6 -0.7 2 -1.5 0.3 -0.8 1.2 -1.5 2 -1.5 0.7 0 1.6 -0.7 2 -1.5 0.3 -0.8 1.5 -1.5 2.6 -1.5 1.1 0 2 -0.6 2 -1.3 0 -2.4 3.5 -4.7 7.1 -4.7 l3.4 0.1 -5.5 5 c-7.7 7 -21 15.9 -31.7 21.3 -5 2.5 -9.4 5.1 -9.6 5.8 -0.3 0.7 -0.6 -0.3 -0.6 -2.3z"/>
  <path d="M734 762.4 c0 -1.2 3.4 -6.4 4.2 -6.4 0.4 0 0.8 1.6 0.8 3.5 0 3.1 -0.3 3.5 -2.5 3.5 -1.4 0 -2.5 -0.3 -2.5 -0.6z"/>
  <path d="M495 759.1 c0 -1.3 1.6 -2.2 8 -4.7 3 -1.2 7.9 -3.1 10.8 -4.2 l5.2 -2.2 0 2.3 c0 1.9 -1.2 2.8 -6.5 5 -3.6 1.5 -7.7 2.7 -9 2.7 -1.4 0 -2.5 0.5 -2.5 1 0 0.6 -1.3 1 -3 1 -1.6 0 -3 -0.4 -3 -0.9z"/>
  <path d="M788.6 756.3 c6.3 -15 10.4 -28.7 13.3 -45.2 1.2 -6.3 2.1 -11.6 2.1 -11.8 0 -0.2 0.7 -0.3 1.5 -0.3 1 0 1.5 1 1.5 3.3 0 5.1 -5.8 32.1 -6.9 32.5 -0.6 0.2 -1.1 1.6 -1.1 3 0 4 -4.2 15.2 -5.7 15.2 -0.8 0 -1.3 1.3 -1.3 3.5 0 3.1 -0.3 3.5 -2.5 3.5 l-2.5 0 1.6 -3.7z"/>
  <path d="M174.5 752.8 c-7.9 -4.4 -8.6 -9.7 -2.5 -21.7 4.6 -9 7.7 -20.3 8.6 -30.6 0.5 -5.6 0.1 -9.3 -2.1 -18.5 -1.4 -6.3 -2.9 -13.4 -3.2 -15.7 l-0.6 -4.3 3.6 0 c3.2 0 3.5 0.3 4.3 3.8 0.6 2.9 0.9 3.2 1.2 1.5 0.3 -1.9 1 -2.3 3.7 -2.3 3.1 0 3.4 0.4 4.9 4.7 0.9 2.6 1.6 5.7 1.6 7 0 1.3 0.4 2.3 0.9 2.3 0.5 0 1.2 0.8 1.4 1.8 0.3 0.9 0.5 -3.8 0.6 -10.5 l0.1 -12.3 2.8 -0.1 c2.7 0 2.7 -0.1 0.5 -1.1 -2.1 -1 -2.3 -1.8 -2.3 -9.9 0 -6.5 0.5 -10.2 2 -13.9 2.4 -6.2 2.4 -6 0 -6 -1.7 0 -2 -0.7 -2 -4.5 0 -4.5 0 -4.5 3.5 -4.5 3.5 0 3.5 0 3.5 4.5 0 3.6 0.3 4.5 1.8 4.5 1.6 0 1.7 1.3 1.7 15.5 l0 15.5 -2.3 0 c-2.3 0 -2.4 0.1 -1.7 7.4 0.4 4.1 0.4 10.2 0 13.5 l-0.7 6.1 -3.4 0 c-2.7 0 -3.4 0.4 -3.4 2 0 1.6 -0.7 2 -3.4 2 -3.4 0 -4.6 -1.5 -4.6 -6.3 0 -1 -0.8 -2.6 -1.7 -3.5 -1.6 -1.6 -1.6 -1.6 -1 0.1 0.4 1 1.2 4.7 1.9 8.3 1.3 7.1 0 22.2 -2.7 32.9 -0.8 3.1 -1.5 6.4 -1.5 7.3 0 0.9 -1.5 4.7 -3.4 8.4 -3.4 6.5 -3.4 6.6 -1.3 7.2 1.2 0.3 2.8 -0.1 3.7 -0.9 0.9 -0.8 2.1 -1.5 2.7 -1.5 0.6 0 4 -1.4 7.5 -3 4.9 -2.3 8.8 -3.2 16.4 -4 5.4 -0.5 14.4 -1.4 19.9 -2 7.1 -0.7 13.7 -0.7 23 0.1 20.5 1.7 47 1.6 53 -0.3 3.9 -1.3 4.4 -1.6 2.3 -1.7 -2.5 -0.1 -2.8 -0.5 -2.8 -3.5 l0 -3.3 6.1 -0.7 c3.4 -0.4 11.6 -2.5 18.3 -4.8 6.6 -2.2 14.9 -4.2 18.4 -4.5 l6.2 -0.6 0 3.7 c0 3.3 -0.4 3.9 -3.7 5.3 -2.1 0.8 -4.6 2.2 -5.5 3 -1.1 1 -3 1.4 -5.3 1.1 -3 -0.3 -3.5 -0.1 -3.5 1.7 0 1.6 -2.1 2.9 -11.3 6.7 -6.1 2.5 -13.9 5.2 -17.2 5.8 -7.6 1.6 -26.8 1.6 -46 0 -32.3 -2.8 -59.3 1.2 -74.5 11 -4.9 3.1 -9.1 3.7 -12.5 1.8z"/>
  <path d="M520 748.2 c0 -0.5 2.3 -2.1 5.1 -3.7 2.9 -1.5 8 -4.7 11.5 -7.1 l6.4 -4.4 0 3 c0 2.3 -0.4 3 -2 3 -1.1 0 -2 0.7 -2 1.5 0 0.8 -0.7 1.5 -1.5 1.5 -0.8 0 -1.5 0.4 -1.5 1 0 0.5 -1.1 1.2 -2.5 1.6 -1.4 0.3 -2.5 0.9 -2.5 1.3 0 1.2 -4.9 3.1 -8 3.1 -1.7 0 -3 -0.4 -3 -0.8z"/>
  <path d="M593.6 741.3 c15.9 -20.8 24.1 -40.6 28.9 -69.5 0.7 -4.5 3.5 -5.3 3.5 -1 0 8 -7.2 37.2 -9.2 37.2 -0.4 0 -0.8 1.1 -0.8 2.5 0 1.6 -0.6 2.5 -1.5 2.5 -1 0 -1.5 1 -1.5 2.9 0 4.2 -1 6.1 -3.1 6.1 -1.5 0 -1.9 0.7 -1.9 3.4 0 1.9 -0.7 4.1 -1.5 5 -0.8 0.8 -1.5 1.9 -1.5 2.5 0 0.6 -0.4 1.1 -1 1.1 -0.5 0 -1 0.7 -1 1.5 0 0.8 -0.4 1.5 -0.9 1.5 -0.5 0 -1.1 0.9 -1.4 2 -0.3 1.1 -1.2 2 -2.1 2 -0.9 0 -1.6 0.8 -1.6 2 0 1.6 -0.7 2 -3.1 2 l-3.1 0 2.8 -3.7z"/>
  <path d="M703 741.6 c0 -2.5 0.4 -3.6 1.5 -3.6 0.9 0 1.5 -0.9 1.5 -2.5 0 -2 0.5 -2.5 2.5 -2.5 1.4 0 2.5 0.3 2.5 0.6 0 1.1 -5.1 9.2 -6.5 10.4 -1.3 1.1 -1.5 0.7 -1.5 -2.4z"/>
  <path d="M452 739.9 c0 -3.6 0.1 -3.7 6.8 -5.9 3.7 -1.3 10 -3.8 14.1 -5.6 4 -1.9 8.6 -3.4 10.2 -3.4 1.9 0 2.9 -0.5 2.9 -1.5 0 -1 1.1 -1.5 3.5 -1.5 1.9 0 3.5 0.4 3.5 0.9 0 1.5 -24.6 12.8 -34.2 15.7 -2.6 0.8 -5.2 2.2 -5.7 3.2 -0.8 1.4 -1 1 -1.1 -1.9z"/>
  <path d="M747.1 736.8 c2.5 -6.3 2.8 -6.8 4 -6.8 0.5 0 0.9 1.6 0.9 3.5 0 1.9 -0.4 3.5 -1 3.5 -0.5 0 -1 1.1 -1 2.5 0 2 -0.5 2.5 -2.5 2.5 l-2.5 0 2.1 -5.2z"/>
  <path d="M756 737.6 c0 -3.2 0.3 -3.6 2.5 -3.6 2.4 0 2.5 0.1 1.2 3.2 -1.9 4.6 -3.7 4.8 -3.7 0.4z"/>
  <path d="M759.3 728.4 c0.3 -2.7 1 -5 1.6 -5.2 0.6 -0.2 1.1 -1.9 1.1 -3.8 0 -2.7 0.4 -3.4 2 -3.4 2.5 0 2.5 1.7 -0.3 9.9 -2.8 8.2 -5.2 9.6 -4.4 2.5z"/>
  <path d="M559.2 728.5 c0.2 -3.1 0.8 -4.2 2.6 -5 1.2 -0.5 2.2 -1.7 2.2 -2.5 0.1 -2.2 2.5 -5 4.4 -5 1.1 0 1.6 -0.9 1.6 -3 0 -2.3 0.4 -3 2 -3 1.6 0 2 -0.7 2 -3 0 -3.2 2.9 -10 4.2 -10 0.4 0 0.8 -1.1 0.8 -2.4 0 -1.4 0.7 -3.1 1.5 -4 0.8 -0.8 1.5 -2.3 1.5 -3.3 0 -1 1.1 -6.3 2.5 -11.7 1.4 -5.4 2.5 -11.1 2.5 -12.7 0 -2.3 0.5 -2.9 2.1 -2.9 2 0 2.1 0.3 1.4 5.7 -0.7 5.8 -3.6 17.8 -6 24.8 -4 12 -13.6 28.9 -21 37 l-4.5 5 0.2 -4z"/>
  <path d="M287.9 727.8 c-0.2 -3.1 -0.2 -3.1 -0.6 -0.5 -0.4 2.5 -0.8 2.7 -4.6 2.7 -2.3 -0.1 -6.2 -0.6 -8.7 -1.1 -2.5 -0.6 -7.1 -1.6 -10.2 -2.2 -5.7 -1.1 -5.8 -1.2 -5.8 -4.4 l0 -3.3 6.3 0 c3.7 0 7.4 -0.6 9.2 -1.6 2.3 -1.2 4.6 -1.4 10.3 -0.9 7 0.7 20 -0.9 21.2 -2.6 0.3 -0.3 5.2 -2.3 10.9 -4.3 5.8 -2 10.7 -3.9 11 -4.1 0.2 -0.3 -1 -0.5 -2.7 -0.5 -2.9 0 -3.2 -0.3 -3.2 -3 0 -3 0 -3 -2.5 -1.4 -1.5 1 -2.5 2.6 -2.5 4 0 2 -0.5 2.4 -2.7 2.4 -5.8 0 -7.3 -1 -7.3 -4.6 0 -2.4 0.5 -3.4 1.5 -3.4 0.9 0 1.5 -1 1.5 -2.6 l0 -2.6 -2.9 2.8 c-5.6 5.4 -7.1 6.4 -17.3 11.4 -15.9 7.6 -19.9 8.4 -42.1 7.7 -25.9 -0.8 -27.3 -1.6 -31.6 -18.1 -2.4 -9.1 -2.8 -26 -1 -34.7 2.5 -11.6 11.9 -28.6 17.1 -30.9 2.7 -1.2 3 -1.5 1.3 -1.8 -1 -0.2 -2.1 0.1 -2.3 0.7 -0.2 0.6 -1.9 1.1 -3.9 1.1 l-3.5 0 0.5 -4.2 c0.8 -6.6 3.3 -18 4.8 -21.5 1.1 -2.8 1.9 -3.3 4.6 -3.3 2.7 0 3.2 0.4 3.5 2.8 0.3 2.4 0.7 2 3.8 -4 3.2 -6.3 3.8 -6.8 6.8 -6.8 2.2 0 3.2 0.5 3.2 1.6 0 1.4 0.2 1.4 1.5 0 0.8 -0.8 1.5 -1.9 1.5 -2.5 0 -0.6 0.5 -1.1 1 -1.1 0.6 0 1 -0.9 1 -2 0 -1.1 0.5 -2 1 -2 0.6 0 1 -0.9 1 -1.9 0 -1.1 0.8 -2.2 1.8 -2.4 1 -0.3 0.6 -0.5 -1.1 -0.6 -2.6 -0.1 -2.8 -0.4 -2.5 -3.8 0.3 -3.3 0.7 -3.8 3.1 -4.1 2.1 -0.3 2.7 -0.8 2.7 -2.8 0 -4.2 1.8 -6.4 5 -6.4 2.6 0 3 -0.4 3 -2.8 0 -4 3.7 -7.2 8.3 -7.2 3.5 0 3.7 0.2 3.7 3.1 0 1.7 -1 4.9 -2.2 7 -1.8 3.3 -2.7 3.9 -5.4 3.9 -3.6 0 -4.2 1.2 -3.6 6.8 0.4 2.9 0.7 3.2 3.8 3.2 3.2 0 3.4 0.2 3.4 3.5 0 2.4 -0.6 3.9 -2 4.7 -1.1 0.7 -2 1.6 -2 2 0 0.4 -1.6 3.2 -3.5 6.2 -1.9 3 -3.5 5.9 -3.5 6.5 0 0.5 -1.8 2.3 -3.9 4 -4.3 3.4 -11.1 4.4 -11.1 1.6 0 -0.8 -0.7 -1.5 -1.5 -1.5 -0.8 0 -1.5 -0.5 -1.5 -1.2 0 -0.6 -2 2.7 -4.4 7.3 -2.4 4.6 -4.2 8.6 -4 8.8 0.2 0.2 6 -2.4 12.8 -5.9 l12.4 -6.3 15.8 0.5 c15 0.5 16.4 0.7 24.4 3.9 6.9 2.6 9.6 4.3 14.2 8.9 6.2 6.2 7.2 8.7 9 21.6 1 7.3 0.9 9 -1 16.9 -2.2 8.7 -8.2 20.3 -13.9 26.5 -3.7 4 -2.7 4.1 4.5 0.5 3.7 -1.8 8.8 -4.1 11.4 -5 2.6 -0.9 5.8 -2.5 7 -3.5 l2.3 -1.9 -3.8 -0.1 -3.8 0 0.3 -4.2 c0.2 -3.3 0.8 -4.5 2.6 -5.3 1.2 -0.5 2.2 -1.8 2.2 -2.7 0 -1 0.5 -1.8 1 -1.8 0.6 0 1 -0.7 1 -1.6 0 -0.9 1.7 -3.2 3.7 -5.2 3.6 -3.6 3.7 -3.9 3.4 -10 -0.1 -4.2 0.2 -7.1 1.2 -8.5 3 -4.7 9.1 -19.5 10.9 -26.6 4.4 -17.3 7 -43.1 4.9 -49.4 -1.1 -3.3 -1.6 -3.7 -4.8 -3.7 -2 0 -6 0.7 -9 1.5 -2.9 0.8 -7.7 2.2 -10.6 3 -3 0.8 -6.1 1.5 -7 1.5 -1 0 -1.7 0.4 -1.7 0.9 0 1 -11.4 6.1 -13.6 6.1 -0.8 0 -1.4 0.5 -1.4 1 0 0.6 -0.7 1 -1.6 1 -0.8 0 -2.2 0.7 -3 1.5 -0.9 0.8 -3.1 1.5 -5 1.5 -3.2 0 -3.4 -0.2 -3.4 -3.5 0 -3.1 0.3 -3.6 3 -4.1 1.7 -0.4 3 -1 3 -1.5 0 -0.5 0.9 -0.9 2 -0.9 1.1 0 2 -0.4 2 -0.8 0 -1.1 11.8 -6.2 14.3 -6.2 0.9 0 1.7 -0.4 1.7 -0.9 0 -1 22.8 -7.9 29.2 -8.7 7.4 -1 11.4 0.1 12.8 3.7 1.7 4 0.7 33.5 -1.5 46.8 -0.9 5.2 -1.4 9.5 -1.2 9.7 0.5 0.5 5.7 -16.8 5.7 -19 0 -1.4 0.8 -1.7 3.8 -1.4 l3.7 0.3 -0.2 9.5 c-0.1 5.9 -0.9 12.5 -2.2 17.5 -2.4 9 -11.4 28.3 -13.6 29.2 -0.8 0.3 -1.5 1.1 -1.5 1.7 0 0.7 -3.9 5.3 -8.6 10.4 -7.8 8.3 -8.3 9.2 -6 9.2 2 0 2.6 -0.5 2.6 -2.1 0 -3.4 5 -7.9 8.7 -7.9 2.4 0 3.3 0.5 3.4 1.8 0 1 0.3 1.2 0.6 0.5 0.2 -0.7 2 -1.3 3.9 -1.3 3.1 0 3.4 0.2 3.4 3.1 0 2.3 -1.1 4.2 -4.4 7.5 -2.5 2.4 -5.4 4.4 -6.5 4.4 -1.4 0 -2.1 0.6 -2.1 1.9 0 1.1 -1.1 2.3 -2.8 3 -1.5 0.6 -4.1 2.3 -5.7 3.7 -1.6 1.3 -7.6 4.8 -13.3 7.7 -5.7 2.9 -9.8 5.3 -9 5.5 1.9 0.4 19.1 -6.3 25.4 -9.9 2.8 -1.6 5.9 -2.9 6.8 -2.9 0.9 0 1.6 -0.4 1.6 -0.9 0 -0.6 2.7 -2.4 6 -4.2 3.3 -1.7 6 -3.6 6 -4 0 -0.5 1.8 -0.9 4 -0.9 3.9 0 4 0.1 4 3.3 0 2.6 -1.2 4.6 -5.1 9.1 -4.9 5.4 -5.5 5.7 -9.3 5.5 -6.5 -0.3 -6.6 -0.2 -6.6 4.1 0 3.7 -0.3 4.1 -3 4.7 -1.6 0.3 -3 0.9 -3 1.4 0 0.5 -1.6 0.9 -3.5 0.9 -2.9 0 -3.5 -0.4 -3.5 -2.1 0 -1.5 -0.4 -1.9 -1.6 -1.5 -0.9 0.3 -1.7 0.6 -1.8 0.6 -0.1 0 0 1.6 0.2 3.6 0.5 4.3 0.8 4.2 -12.3 9.3 -13.4 5.3 -19.1 7.1 -22 7.1 -1.4 0 -2.5 0.4 -2.5 0.9 0 0.5 -2.4 1.4 -5.2 1.9 l-5.3 1 4.3 0.1 c4.1 0.1 4.2 0.2 4.2 3.6 l0 3.5 -8 0 -8 0 -0.1 -3.2z m-12.5 -36.4 c18.5 -4.5 30.5 -21.8 25.1 -36.2 -4.5 -12 -18.7 -21.9 -30 -21 -8.4 0.7 -17.7 5.8 -23 12.6 -9.1 11.5 -11.9 26 -7 35.8 2.7 5.5 5.8 7.7 13.6 9.8 5.8 1.6 11.8 1.3 21.3 -1z"/>
  <path d="M549 726.5 c1.9 -1.9 3.5 -3.5 3.7 -3.5 0.2 0 0.3 1.6 0.3 3.5 0 3.4 -0.1 3.5 -3.7 3.5 l-3.7 0 3.4 -3.5z"/>
  <path d="M751.3 725.5 c0.6 -1.9 1.6 -3.5 2.4 -3.5 0.8 0 1.3 1.3 1.3 3.5 0 3 -0.3 3.5 -2.4 3.5 -2.3 0 -2.4 -0.2 -1.3 -3.5z"/>
  <path d="M712 724.5 c0 -1.9 0.5 -3.5 1 -3.5 0.6 0 1 -1.1 1 -2.5 0 -1.8 0.5 -2.5 2 -2.5 2.5 0 2.5 1.6 0 7.4 -2.3 5.5 -4 5.9 -4 1.1z"/>
  <path d="M226.3 724.3 c-1.9 -0.4 -2.3 -1.1 -2.3 -3.9 0 -3.3 0.1 -3.4 4.3 -3.4 7.3 0 8.7 0.8 8.7 4.6 0 3.4 -0.1 3.4 -4.2 3.3 -2.4 -0.1 -5.3 -0.4 -6.5 -0.6z"/>
  <path d="M197 722.6 c0 -0.9 -0.4 -1.6 -1 -1.6 -1.9 0 -1.1 -7.9 1 -10 l2 -2 -2 -3.7 c-2.1 -3.9 -2.7 -10.3 -1 -10.3 0.6 0 1 -0.7 1 -1.5 0 -0.8 0.9 -1.5 1.9 -1.5 1.1 0 2.3 -0.4 2.6 -1 0.3 -0.5 2.2 -1 4.1 -1 2.6 0 3.4 0.4 3.4 1.8 0 3.5 -3.4 20.2 -4.2 20.2 -0.4 0 -0.8 0.9 -0.8 2 0 1.7 0.7 2 4.5 2 4.5 0 4.5 0 4.5 3.5 0 3.1 -0.3 3.5 -2.7 3.5 -1.6 0 -5.2 0.3 -8 0.6 -4.5 0.6 -5.3 0.4 -5.3 -1z"/>
  <path d="M501 716.6 c0 -2.6 1.6 -3.6 6.1 -3.6 4 0 3.6 1.2 -1 3.8 -4.8 2.7 -5.1 2.7 -5.1 -0.2z"/>
  <path d="M561.2 712 c1.8 -2.7 3.6 -5 4.1 -5 0.4 0 0.7 1.6 0.7 3.5 0 1.9 -0.4 3.5 -1 3.5 -0.5 0 -1 0.7 -1 1.5 0 1 -1 1.5 -3 1.5 l-3 0 3.2 -5z"/>
  <path d="M755 715.1 c0 -0.5 0.7 -3.9 1.4 -7.7 0.8 -3.8 1.8 -8.6 2.1 -10.6 0.4 -2.6 1.1 -3.8 2.2 -3.8 1.3 0 1.5 0.9 0.9 5.8 -1.4 12.3 -2.7 17.2 -4.7 17.2 -1.1 0 -1.9 -0.4 -1.9 -0.9z"/>
  <path d="M764 713.1 c0 -1 0.3 -3.9 0.6 -6.5 0.5 -3.7 1.1 -4.6 2.6 -4.6 2.1 0 2.1 0.5 0.2 10.3 -0.6 3 -3.4 3.7 -3.4 0.8z"/>
  <path d="M511 710.5 c0 -1.5 0.6 -2.5 1.4 -2.5 0.8 0 1.6 -0.7 2 -1.5 0.3 -0.8 1.5 -1.5 2.6 -1.5 1.1 0 2 -0.7 2 -1.5 0 -0.8 0.9 -1.5 2 -1.5 1.1 0 2 -0.7 2 -1.5 0 -1.1 1.1 -1.5 3.6 -1.5 1.9 0 3.3 0.4 3 0.9 -0.9 1.4 -16.7 13.1 -17.7 13.1 -0.5 0 -0.9 -1.1 -0.9 -2.5z"/>
  <path d="M717 709.5 c0 -2.8 0.4 -3.5 2 -3.5 2.1 0 2.4 1 1.4 4.8 -1 3.6 -3.4 2.7 -3.4 -1.3z"/>
  <path d="M298 707.5 c0 -3.3 0.2 -3.5 3.5 -3.5 3.3 0 3.5 0.2 3.5 3.5 0 3.3 -0.2 3.5 -3.5 3.5 -3.3 0 -3.5 -0.2 -3.5 -3.5z"/>
  <path d="M569.5 697.5 c0.8 -1.9 2.2 -5.1 3 -7 0.9 -2 2.5 -7.5 3.6 -12.3 1.1 -4.8 2.3 -9.6 2.6 -10.6 0.4 -1.5 0.1 -1.8 -1.6 -1.3 -1.1 0.3 -2.1 0.1 -2.1 -0.4 0 -0.5 1.6 -0.9 3.6 -0.9 l3.7 0 -0.6 5.3 c-0.9 7.3 -4.5 21.1 -5.7 21.5 -0.6 0.2 -1 1.2 -1 2.2 0 3.7 -2.2 7 -4.7 7 -2.3 0 -2.3 -0.1 -0.8 -3.5z"/>
  <path d="M720.4 693.8 c0.3 -2.9 0.6 -6.3 0.6 -7.5 0 -1.7 0.6 -2.3 2.1 -2.3 2 0 2.1 0.4 1.5 4.8 -1.2 8.6 -1.7 10.2 -3.3 10.2 -1.3 0 -1.5 -0.9 -0.9 -5.2z"/>
  <path d="M532.2 693.9 c0.3 -3.1 0.6 -3.4 3.7 -3.7 l3.5 -0.4 -2.5 3.3 c-3.6 4.6 -5.1 4.9 -4.7 0.8z"/>
  <path d="M804 692.8 c0 -4.8 1 -7.8 2.6 -7.8 1 0 1.4 1.5 1.4 5.5 0 4.8 -0.2 5.5 -2 5.5 -1.6 0 -2 -0.7 -2 -3.2z"/>
  <path d="M767 690.5 c0 -3.8 0.3 -4.5 2 -4.5 2.1 0 2.6 2.3 1.4 6.8 -1.1 4.1 -3.4 2.6 -3.4 -2.3z"/>
  <path d="M722 671 c0 -5.3 0.2 -6 2 -6 1.6 0 2 0.7 2 3.8 0 5.2 -1 8.2 -2.6 8.2 -1 0 -1.4 -1.6 -1.4 -6z"/>
  <path d="M172.6 657.9 c-1.3 -6.7 -0.9 -7.9 2.8 -7.9 3 0 3.4 0.4 4 3.1 1.3 6.7 0.9 7.9 -2.8 7.9 -3 0 -3.4 -0.4 -4 -3.1z"/>
  <path d="M623 654 c0 -6.3 0.2 -7 2 -7 1.8 0 2 0.7 2 7 0 6.3 -0.2 7 -2 7 -1.8 0 -2 -0.7 -2 -7z"/>
  <path d="M370 654.5 c0 -3.3 0.2 -3.5 3.5 -3.5 3.3 0 3.5 0.2 3.5 3.5 0 3.3 -0.2 3.5 -3.5 3.5 -3.3 0 -3.5 -0.2 -3.5 -3.5z"/>
  <path d="M539 647.5 c0 -3.9 2.4 -4.9 3.3 -1.4 0.4 1.5 1.1 2 2.1 1.6 1.1 -0.5 1.6 0 1.6 1.3 0 1.6 -0.7 2 -3.5 2 -3.3 0 -3.5 -0.2 -3.5 -3.5z"/>
  <path d="M805 617.8 c0 -17.2 0.3 -32.3 0.6 -33.5 0.4 -1.3 1.3 -2.3 2 -2.3 1.2 0 1.4 5.6 1.4 33.5 0 32.8 0 33.5 -2 33.5 -2 0 -2 -0.7 -2 -31.2z"/>
  <path d="M373.8 647.3 c-1.3 -0.3 -1.8 -1.5 -1.8 -3.9 0 -1.9 0.5 -3.4 1 -3.4 0.6 0 1 -0.5 1 -1 0 -0.6 1.1 -2.8 2.5 -5 2.2 -3.4 3 -4 6 -4 3.4 0 3.5 0.1 3.5 4.1 0 2.2 -1 6.3 -2.1 9 -1.9 4.4 -2.4 4.9 -5.3 4.8 -1.7 -0.1 -3.9 -0.3 -4.8 -0.6z"/>
  <path d="M173.7 641 c-1 -3.3 -1.7 -7.3 -1.7 -9 0 -2.7 0.3 -3 3.4 -3 3.3 0 3.4 0.1 5 6.5 0.9 3.5 1.6 7.6 1.6 9 0 2.2 -0.4 2.5 -3.3 2.5 -3.3 0 -3.4 -0.2 -5 -6z"/>
  <path d="M549 645.2 c0 -0.8 21.7 -13.3 25.3 -14.5 1.5 -0.6 1.7 -2.4 1.7 -18.2 0 -16.8 0.1 -17.5 2 -17.5 1.9 0 2 0.7 2 17.3 0 9.4 -0.3 18.1 -0.6 19.2 -0.6 2.2 -15.9 10.5 -19.4 10.5 -1.1 0 -2 0.6 -2 1.4 0 0.8 -0.7 1.7 -1.6 2 -2.3 0.9 -7.4 0.7 -7.4 -0.2z"/>
  <path d="M210 636.4 c0 -3.5 2.1 -10.4 3.2 -10.4 0.4 0 0.8 -0.7 0.8 -1.6 0 -0.9 0.5 -3.4 1.2 -5.5 1 -3.5 1.4 -3.9 4.5 -3.9 2.9 0 3.3 0.3 3.3 2.6 0 3.5 -2.1 10.4 -3.2 10.4 -0.4 0 -0.8 0.7 -0.8 1.6 0 0.9 -0.5 3.4 -1.2 5.5 -1 3.5 -1.4 3.9 -4.5 3.9 -2.9 0 -3.3 -0.3 -3.3 -2.6z"/>
  <path d="M589 623.2 c0 -1.5 27.6 -16.2 30.5 -16.2 1.7 0 2 -0.7 3 -6.2 0.9 -5.5 3.5 -5.1 3.5 0.5 0 5.5 -0.9 8.7 -2.5 8.7 -0.6 0 -5.8 2.3 -11.4 5 -5.6 2.8 -11.5 5 -13.2 5 -2.2 0 -2.9 0.5 -2.9 2 0 1.6 -0.7 2 -3.5 2 -1.9 0 -3.5 -0.4 -3.5 -0.8z"/>
  <path d="M768 608.5 c0 -13.8 0.1 -14.5 2 -14.5 1.9 0 2 0.7 2 12.3 0 13.4 -0.5 16.7 -2.6 16.7 -1.1 0 -1.4 -2.8 -1.4 -14.5z"/>
  <path d="M585 587 c0 -19.8 0.2 -24 1.4 -24 2.2 0 2.6 3.4 2.6 26.3 0 21 -0.1 21.7 -2 21.7 -1.9 0 -2 -0.7 -2 -24z"/>
  <path d="M760 600.3 c0 -7.2 0.8 -10.3 2.6 -10.3 1.1 0 1.4 1.9 1.4 8 0 7.3 -0.2 8 -2 8 -1.8 0 -2 -0.7 -2 -5.7z"/>
  <path d="M204 599.1 c0 -1.5 1 -5.1 2.1 -8 2 -4.7 2.4 -5.1 5.5 -5.1 3.3 0 3.4 0.1 3.4 4.3 0 2.3 -0.3 5.9 -0.6 8 -0.7 3.7 -0.7 3.7 -5.5 3.7 -4.7 0 -4.9 -0.1 -4.9 -2.9z"/>
  <path d="M232 596.5 c0 -2.4 -0.5 -3.5 -1.5 -3.5 -1.8 0 -2 -4.8 -0.3 -8.5 0.9 -2 1.8 -2.5 4.6 -2.5 3.4 0 3.4 0.1 3 3.8 -0.3 2 -0.8 4.5 -1.2 5.5 -0.6 1.2 -0.4 1.7 0.8 1.7 1.2 0 1.6 1 1.6 3.5 0 3.3 -0.2 3.5 -3.5 3.5 -3.3 0 -3.5 -0.2 -3.5 -3.5z"/>
  <path d="M236 576.9 c0 -1.8 1.2 -4.8 2.8 -7 2.3 -3.3 3.2 -3.9 6.6 -3.9 l3.9 0 -0.6 4.7 c-0.3 2.6 -1 4.9 -1.6 5.1 -0.6 0.2 -1.1 1.2 -1.1 2.3 0 1.6 -0.7 1.9 -5 1.9 -4.9 0 -5 0 -5 -3.1z"/>
  <path d="M278 576 c0 -2.5 1.4 -4.4 8.1 -10.8 9.5 -9.1 11.2 -10.1 16.2 -10.2 3.6 0 3.7 0.1 3.7 3.8 0 2.8 -0.8 4.6 -3.5 7.6 -1.9 2.2 -3.7 4.8 -4.1 5.8 -0.4 1.3 -1.5 1.8 -4.1 1.8 -2.3 0 -4.5 0.9 -6.5 2.5 -1.9 1.6 -4.2 2.5 -6.4 2.5 -3.1 0 -3.4 -0.2 -3.4 -3z"/>
  <path d="M760.8 574.3 c-0.6 -2.8 0.2 -5.3 1.8 -5.3 0.9 0 1.4 1.1 1.4 3.5 0 3.7 -2.4 5 -3.2 1.8z"/>
  <path d="M760.6 563.5 c-0.8 -3.3 0.3 -7.5 2 -7.5 1 0 1.4 1.4 1.4 5 0 5.5 -2.3 7.1 -3.4 2.5z"/>
  <path d="M768 547.5 c0 -2.7 0.4 -3.5 1.8 -3.5 1.4 0 1.9 0.8 2 3.5 0.1 2.9 -0.2 3.5 -1.8 3.5 -1.6 0 -2 -0.7 -2 -3.5z"/>
  <path d="M723.8 544.3 c-1.7 -0.4 -1.8 -3.1 -1.8 -39.4 0 -32.9 0.2 -38.9 1.4 -38.9 0.8 0 1.7 1.2 2 2.8 0.3 1.5 0.5 18.4 0.5 37.5 0 19.2 0.2 35.1 0.5 35.4 1.3 1.3 32.7 -19.3 33.3 -21.8 0.9 -3.4 3.3 -2.2 3.3 1.7 0 2.7 -0.5 3.7 -2 4.1 -1.1 0.3 -2 0.9 -2 1.4 0 0.5 -0.6 0.9 -1.4 0.9 -0.8 0 -1.6 0.4 -1.8 0.8 -0.5 1.3 -11.1 8.2 -12.5 8.2 -0.7 0 -1.3 0.5 -1.3 1 0 0.6 -1.1 1 -2.5 1 -1.6 0 -2.5 0.6 -2.5 1.5 0 0.8 -0.5 1.5 -1.1 1.5 -0.6 0 -1.7 0.7 -2.5 1.5 -1.5 1.4 -5.9 1.8 -9.6 0.8z"/>
  <path d="M805.7 530 c-0.7 -2.8 0.3 -6 1.9 -6 1 0 1.4 1.3 1.4 4 0 4.3 -2.3 5.7 -3.3 2z"/>
  <path d="M768.7 515.3 c-0.4 -0.3 -0.7 -12.5 -0.7 -27 0 -22.7 0.2 -26.3 1.5 -26.3 0.8 0 1.6 0.8 1.7 1.8 0.4 4.4 0.6 14.1 0.7 30.5 0.1 11 0.5 17.7 1.1 17.7 0.5 0 3.1 -1.5 5.7 -3.4 6.7 -4.8 22.4 -14.6 23.5 -14.6 0.4 0 0.8 1.1 0.8 2.4 0 1.7 -0.7 2.7 -2.2 3.2 -1.2 0.3 -2.8 1.3 -3.6 2 -0.7 0.8 -2 1.4 -2.8 1.4 -0.8 0 -1.4 0.5 -1.4 1 0 0.6 -0.7 1 -1.5 1 -0.8 0 -1.5 0.5 -1.5 1 0 0.6 -0.7 1 -1.5 1 -0.8 0 -1.5 0.5 -1.5 1 0 0.6 -0.4 1 -0.9 1 -0.5 0 -2.6 1.6 -4.7 3.5 -3 2.8 -4.6 3.5 -7.9 3.5 -2.3 0 -4.5 -0.3 -4.8 -0.7z"/>
  <path d="M805 376.8 c0 -57.4 0 -105.1 0 -106 0 -1.6 -1 -1.8 -7.7 -1.8 -9.1 0 -12.3 -0.7 -12.3 -2.6 0 -2.2 22.6 -2 23.4 0.2 0.3 0.9 0.6 49.5 0.6 108 0 106.1 0 106.4 -2 106.4 -2 0 -2 -0.3 -2 -104.2z"/>
  <path d="M768 414 c0 -37.6 0 -38 2 -38 2.1 0 2.1 0.4 2 36 -0.1 19.8 -0.4 36.9 -0.7 38 -0.3 1.1 -1.2 2 -1.9 2 -1.2 0 -1.4 -6.3 -1.4 -38z"/>
  <path d="M768.2 319.3 l0.3 -53.8 3.8 -0.3 c2.8 -0.2 3.7 0 3.7 1.2 0 0.9 -0.6 1.6 -1.4 1.6 -0.8 0 -1.8 0.6 -2.3 1.3 -0.4 0.6 -0.6 24.3 -0.4 52.5 l0.3 51.2 -2.1 0 -2.1 0 0.2 -53.7z"/>
  <path d="M622.8 340.2 c-0.8 -2.9 -1 -31.6 -0.2 -34.6 0.3 -1.4 1.2 -2.6 2 -2.6 1.1 0 1.4 3.5 1.4 19.5 0 15.9 -0.3 19.5 -1.4 19.5 -0.7 0 -1.6 -0.8 -1.8 -1.8z"/>
  <path d="M1196.5 329.2 c0.8 -1.6 2.6 -3.4 4.1 -4 2.5 -1.2 2.5 -1.2 2.2 2.5 -0.3 3.6 -0.5 3.8 -4 4.1 l-3.7 0.3 1.4 -2.9z"/>
  <path d="M722 297 c0 -24.6 0 -25 2.1 -25 2 0 2 0.4 1.8 23.2 -0.2 24.8 -0.4 26.8 -2.5 26.8 -1.2 0 -1.4 -4.4 -1.4 -25z"/>
  <path d="M585 290.3 c0 -9.8 0.3 -19.5 0.6 -21.5 0.6 -3.5 0.9 -3.8 4 -3.8 3.8 0 4.8 2.4 1.4 3.3 -1.9 0.5 -2 1.4 -2 17.9 0 18.5 -0.4 21.8 -2.6 21.8 -1.1 0 -1.4 -3.3 -1.4 -17.7z"/>
  <path d="M623 270.4 c0 -0.9 -0.9 -1.8 -2 -2.1 -3.5 -0.9 -2.4 -3.3 1.5 -3.3 3.3 0 3.5 0.2 3.5 3.5 0 2.4 -0.5 3.5 -1.5 3.5 -0.8 0 -1.5 -0.7 -1.5 -1.6z"/>
  <path d="M576 264.1 c0 -4.5 1 -6.1 3.6 -6.1 1.7 0 2.4 0.6 2.4 2 0 1.1 -0.4 2 -1 2 -0.5 0 -1 1.1 -1 2.5 0 1.8 -0.5 2.5 -2 2.5 -1.5 0 -2 -0.7 -2 -2.9z"/>
  <path d="M595 260 c0 -1.8 0.7 -1.9 14 -1.8 12.8 0.1 14 0.3 14 2 0 1.7 -1.1 1.8 -14 1.8 -13.2 0 -14 -0.1 -14 -2z"/>
  <path d="M760.6 259.5 c0.8 -1.9 4.1 -2.8 8 -2.1 1.6 0.2 3.5 0.5 4.2 0.5 0.6 0.1 1.2 0.8 1.2 1.6 0 1.2 -1.4 1.5 -7 1.5 -5.8 0 -6.8 -0.3 -6.4 -1.5z"/>
  <path d="M800 259.6 c0 -0.8 1.1 -1.7 2.5 -2 1.5 -0.4 2.7 -1.6 3.1 -3.1 0.9 -3.5 3.4 -3.2 3.4 0.4 0 5 -0.9 6.1 -5.1 6.1 -2.7 0 -3.9 -0.4 -3.9 -1.4z"/>
  <path d="M805.8 248.3 c0 -1 -0.2 -2.2 -0.3 -2.8 -0.2 -0.5 -0.3 -5.5 -0.4 -11 l-0.1 -10 -28.5 0.3 c-28.1 0.3 -28.5 0.2 -28.5 -1.8 0 -2 0.5 -2 29.1 -2 23.8 0 29.3 0.3 30.5 1.4 2.1 2.2 2.1 27.6 -0.1 27.6 -0.8 0 -1.6 -0.8 -1.7 -1.7z"/>
  <path d="M540 224.5 l0 -3.5 43 0 43 0 0 3.5 c0 2.4 -0.5 3.5 -1.5 3.5 -0.8 0 -1.5 -0.7 -1.5 -1.5 0 -1.3 -5.1 -1.5 -40 -1.5 -34.7 0 -40.1 0.2 -40.6 1.5 -1.1 2.7 -2.4 1.6 -2.4 -2z"/>
  <path d="M992 78.1 c0 -2.5 0.3 -2.8 2.3 -2.4 5.6 1.4 6.5 5.3 1.2 5.3 -3.2 0 -3.5 -0.3 -3.5 -2.9z"/>
 </g>
 <g fill="#be735e">
  <path d="M191.5 804.3 c-9.5 -0.8 -17.6 -2.7 -25.9 -6 -30.6 -12.2 -46.8 -32.9 -49.9 -64 -1.8 -17.8 1.6 -40.6 9.1 -62.3 5.8 -16.6 23.2 -45.5 37.5 -62.2 4.2 -5 5.4 -5.8 8.3 -5.8 3.3 0 3.4 0.1 3.4 3.9 0 2.8 -2.2 8.1 -8.3 20.2 -10.1 20 -14.1 29.9 -17.8 44.9 -3.2 12.7 -3.5 17.9 -1.5 29 2.5 13.8 10.2 28.2 19.3 35.9 2.1 1.8 4.5 4.5 5.4 6 2.2 3.7 7.8 7.3 9.7 6.2 0.9 -0.5 3 -0.2 5.6 0.9 13 5.7 35.5 7.6 56.1 4.7 23.3 -3.2 74.2 -16.5 102.5 -26.7 6.3 -2.3 13.8 -4.8 16.5 -5.5 4.7 -1.1 18.8 -6 24.5 -8.3 1.4 -0.6 8.4 -3.2 15.5 -5.7 7.2 -2.6 15.9 -5.9 19.5 -7.2 10.4 -4 54.9 -23 61.6 -26.3 3.4 -1.7 7 -3 8.1 -3 1 0 2.3 -0.4 2.9 -0.9 0.5 -0.5 6.8 -3.6 13.9 -6.9 7.2 -3.3 18.6 -8.6 25.5 -11.9 6.9 -3.3 14.8 -7 17.5 -8.2 2.8 -1.2 9.4 -4.8 14.8 -7.9 13.3 -7.7 17.3 -9.9 30.2 -16.7 6.1 -3.1 14 -7.5 17.7 -9.6 3.6 -2.2 6.9 -3.9 7.2 -3.9 0.4 0 2.5 -1.2 4.8 -2.6 2.2 -1.4 12.2 -7.1 22.2 -12.6 10 -5.5 21.1 -12 24.7 -14.4 3.7 -2.4 7.1 -4.4 7.5 -4.4 1 -0.1 7.9 -4.3 24.6 -15.1 5.7 -3.6 15.3 -9.5 21.3 -12.9 6.1 -3.5 16.9 -10.2 24 -15 7.2 -4.8 17.7 -11.6 23.5 -15.3 5.8 -3.7 20 -13.2 31.5 -21.2 11.6 -8 24.8 -17 29.5 -20.2 12.9 -8.6 79.3 -58.3 82 -61.4 0.3 -0.3 3.2 -2.5 6.5 -4.9 3.3 -2.4 10 -7.8 14.9 -11.9 11 -9.4 25 -20.6 26.9 -21.8 0.8 -0.4 5 -4 9.3 -7.9 4.4 -4 10.2 -9.1 12.9 -11.4 2.8 -2.3 6.4 -5.7 8 -7.4 1.7 -1.7 4.4 -4.1 6 -5.4 3.2 -2.4 23.7 -21.8 47.1 -44.4 14.1 -13.6 14.3 -13.8 18.8 -13.8 l4.6 0 0 5 c0 4.8 -0.1 5.1 -8.9 14.2 -35.3 37 -80 79.6 -110.1 105.3 -5.1 4.4 -13.5 11.6 -18.4 16 -5 4.4 -11.6 10 -14.6 12.5 -3 2.5 -9.1 7.6 -13.5 11.5 -4.5 3.8 -10.9 9.3 -14.4 12 -3.6 2.8 -9.2 7.2 -12.5 9.8 -3.4 2.7 -9.7 7.5 -14.1 10.9 -4.4 3.3 -11.6 8.9 -16 12.4 -4.4 3.5 -12.7 9.8 -18.5 14 -13.9 10.2 -21 16.2 -21 18 0 2.1 -2.7 1.7 -3.3 -0.6 -0.4 -1.7 -0.8 -1.8 -2.9 -0.7 -1.3 0.6 -4.4 2.8 -6.8 4.8 -2.5 1.9 -8.7 6.2 -13.8 9.5 -8.7 5.4 -12.2 8.8 -10.8 10.1 0.3 0.3 -1.3 1.9 -3.4 3.4 -2.2 1.6 -4 3.6 -4 4.4 0 2.2 -2.7 1.8 -3.3 -0.5 -0.8 -3.1 -2.7 -2.4 -9.6 3.3 -3.5 2.8 -10.5 7.9 -15.5 11.2 -7.3 4.9 -9.2 6.6 -9.4 8.8 -0.2 1.5 -0.7 2.7 -1.1 2.7 -0.5 0 -4.8 2.6 -9.7 5.9 -4.9 3.2 -12.5 8.1 -16.9 10.8 -23 14.3 -41.3 25.8 -44 27.6 -1.6 1.2 -5.2 3.2 -8 4.5 -6.5 3.1 -20.5 12.2 -20.5 13.3 0 0.5 -0.7 0.9 -1.5 0.9 -0.8 0 -1.5 -0.7 -1.5 -1.5 0 -2.2 -1.7 -1.8 -5.6 1.2 -1.9 1.4 -8.5 5.2 -14.7 8.3 -9.6 4.8 -11.2 6 -11.5 8.3 -0.2 1.5 -1.1 2.9 -2.3 3.2 -1 0.4 -3.1 1.7 -4.7 2.9 -4 3.3 -6.1 3.9 -5.5 1.5 0.8 -2.8 -1.1 -2.4 -8.6 2.1 -3.7 2.2 -7.4 4 -8.3 4 -0.9 0 -1.8 0.4 -2 0.9 -0.1 0.4 -4 2.7 -8.5 5 -6.6 3.4 -8.9 5.2 -11.9 9.4 -2.1 2.9 -3.9 4.6 -4.1 4 -0.3 -0.8 -9.1 3.2 -23.6 10.5 -12.8 6.5 -29.7 14.7 -37.7 18.4 -47 21.5 -45.3 20.8 -56.5 25 -4.4 1.7 -10.2 3.9 -13 5 -8.8 3.5 -28.8 10.8 -36 13.3 -3.8 1.3 -12.8 4.5 -20 7 -71 25.2 -119.5 35 -157 31.8z"/>
  <path d="M613.8 790.2 c-1 -0.2 -1.8 -1 -1.8 -1.8 0 -1 1.4 -1.4 5.5 -1.4 4.2 0 5.5 0.3 5.5 1.5 0 0.8 -0.6 1.5 -1.2 1.6 -0.7 0 -2.4 0.1 -3.8 0.2 -1.4 0.2 -3.3 0.1 -4.2 -0.1z"/>
  <path d="M177.4 747.5 c-0.4 -0.8 -1.2 -1.5 -1.9 -1.5 -1.3 0 -2.9 -2.9 -2.1 -3.8 0.3 -0.2 1.9 0.7 3.6 2.2 1.7 1.4 3.6 2.6 4.1 2.6 0.6 0 0.7 0.5 0.4 1 -0.9 1.5 -3.5 1.2 -4.1 -0.5z"/>
  <path d="M752 724.4 c0 -2.1 1.8 -5.4 3 -5.4 0.6 0 1 1.6 1 3.5 0 2.8 -0.4 3.5 -2 3.5 -1.1 0 -2 -0.7 -2 -1.6z"/>
  <path d="M243 721.5 l0 -3.5 8.5 0 8.5 0 0 3.5 0 3.5 -8.5 0 -8.5 0 0 -3.5z"/>
  <path d="M275.2 723.9 c0.3 -0.8 1.8 -1.5 3.4 -1.7 3.3 -0.4 2.4 1.1 -1.5 2.3 -1.7 0.5 -2.2 0.4 -1.9 -0.6z"/>
  <path d="M195.3 722.5 c-0.8 -2.3 0.4 -9.9 1.6 -10.3 0.6 -0.2 1.1 -1 1.1 -1.8 0 -0.9 1.1 -1.4 3.5 -1.4 3.3 0 3.5 0.2 3.5 3.5 0 1.9 -0.4 3.5 -1 3.5 -0.5 0 -1 1.8 -1 4 0 3.9 -0.1 4 -3.5 4 -2.3 0 -3.8 -0.6 -4.2 -1.5z"/>
  <path d="M224 722.9 c-2.5 -0.4 -6.8 -0.8 -9.6 -0.8 l-5.1 -0.1 -0.1 -3.5 -0.1 -3.5 6.7 0 c3.7 0 10.2 0.5 14.4 1.2 l7.8 1.2 0 3.3 c0 3.3 0 3.3 -4.7 3.2 -2.7 -0.1 -6.8 -0.5 -9.3 -1z m8.5 -1.9 c-1.1 -0.5 -2.9 -0.8 -4 -0.8 -1.6 0 -1.5 0.2 0.5 0.8 3.4 1.1 6 1.1 3.5 0z"/>
  <path d="M270 720 c0 -1.1 0.6 -2 1.3 -2 0.6 -0.1 2.5 -1.2 4.2 -2.5 l3 -2.4 -4.9 1.4 c-6.3 1.9 -11.6 2 -11.6 0.1 0 -0.8 2.6 -1.9 6.7 -3 7 -1.7 25.7 -10.3 29.3 -13.4 9 -7.7 13.2 -12.6 19.3 -22.3 6.1 -9.8 9.1 -21 7.8 -29.1 -1.9 -11.4 -3 -13.9 -8.9 -19.8 -4.6 -4.6 -7.3 -6.3 -14.2 -8.9 -7.5 -2.9 -10 -3.4 -21.2 -3.8 -12.4 -0.6 -12.7 -0.5 -19 2.4 -3.4 1.6 -6.9 2.8 -7.6 2.5 -0.7 -0.2 -1.2 -2.1 -1.2 -4.5 0 -3.9 0.5 -4.7 6 -9.6 3.3 -3 7 -6.1 8.3 -6.9 1.2 -0.9 3.7 -2.8 5.5 -4.4 1.8 -1.5 4.3 -2.8 5.5 -2.8 1.2 0 5.4 -1.7 9.2 -3.7 11.9 -6.1 16.5 -8.3 17.4 -8.3 0.4 0 2.5 -1.1 4.5 -2.5 2 -1.4 6.2 -3.1 9.4 -3.9 3.1 -0.8 9.3 -2.3 13.6 -3.5 10.6 -2.8 18.6 -2.8 21.2 0 2.8 3.1 2.3 20.1 -1.1 38.4 -1.4 7.7 -3 16.5 -3.5 19.5 -0.6 3 -1.8 6.6 -2.8 8 -1.9 2.6 -7.2 17.7 -7.2 20.5 0 0.8 -1.1 3.6 -2.5 6.2 -1.3 2.7 -3.1 6.6 -4 8.8 -4.4 11.3 -11.4 21.4 -17.2 24.7 -3.6 2.2 -4.5 4.3 -1.3 3.3 2.3 -0.7 2.4 -0.6 1 3.1 -0.6 1.5 -1.3 2.4 -1.7 2.1 -0.3 -0.4 -1.4 0.5 -2.5 1.8 -1.1 1.4 -2.4 2.5 -2.9 2.5 -0.5 0 -1.9 0.9 -3.1 2 -1.2 1.1 -3 2 -4 2 -1 0 -1.8 0.4 -1.8 0.9 0 0.4 -2.1 1.6 -4.7 2.6 -2.7 1 -5.8 2.5 -7.1 3.3 -1.3 0.9 -3.4 1.2 -5.2 0.9 -1.7 -0.4 -4 0 -5.7 0.8 -4 2.1 -6.3 1.9 -6.3 -0.5z"/>
  <path d="M281.1 704.3 c-0.8 -0.3 0.9 -1.7 4 -3.4 2.9 -1.6 5.5 -2.7 5.7 -2.4 1.2 1.2 -7.7 6.5 -9.7 5.8z"/>
  <path d="M294 696 c0.6 -1.1 1.4 -2 1.8 -2 0.4 0 0.8 0.9 0.8 2 0 1.3 -0.7 2 -1.8 2 -1.6 0 -1.7 -0.3 -0.8 -2z"/>
  <path d="M759 687.8 c0 -3 1.3 -5.8 2.6 -5.8 0.9 0 1.4 1.2 1.4 3.5 0 2.8 -0.4 3.5 -2 3.5 -1.1 0 -2 -0.6 -2 -1.2z"/>
  <path d="M204 677.8 c0.1 -4 0.7 -10.8 1.4 -15 1.2 -6.7 2.2 -8.9 7.9 -17.5 3.6 -5.4 7.1 -11 7.7 -12.5 0.7 -1.4 2.2 -2.9 3.5 -3.2 1.2 -0.3 2.7 -1.7 3.3 -3.1 1.4 -2.9 5.5 -3.6 4.6 -0.7 -0.4 1.3 -0.1 1.2 1.4 -0.5 1.1 -1.3 2.9 -2.3 4 -2.3 1.4 0 2.2 -0.8 2.4 -2.2 0.2 -1.9 1 -2.4 4.7 -2.6 4.3 -0.3 6 0.7 6.1 3.4 0 0.6 -2.2 2.1 -4.9 3.2 -3.3 1.4 -5.7 3.2 -7.3 5.6 -1.3 2 -3.7 4.2 -5.4 5.1 -2.2 1 -4.4 3.8 -7.5 9.4 -2.4 4.4 -4.8 8.1 -5.2 8.1 -1 0 -4.6 4.1 -4.7 5.3 0 0.4 0.6 0.7 1.4 0.7 1.1 0 1.1 0.9 0.1 5.3 -0.9 4.1 -1.6 5.2 -3.1 5.2 -2.4 0 -3.2 2.4 -3.3 9.8 l-0.1 5.7 -3.5 0 -3.5 0 0 -7.2z"/>
  <path d="M1179.6 344.2 c-0.9 -1.5 -11.7 -49.2 -16.5 -72.7 -1.1 -5.5 -3.8 -17.4 -5.9 -26.5 -2.2 -9.1 -4.7 -20.3 -5.7 -25 -1 -4.7 -3 -13.7 -4.6 -20.1 -3.3 -14 -4.4 -21.9 -3.4 -25.6 0.3 -1.5 5.9 -8.1 12.9 -15.3 11.7 -12 21.1 -22.7 32.3 -36.9 2.9 -3.6 7.2 -8.8 9.5 -11.6 l4.3 -5 -6.5 4.6 c-3.6 2.5 -18.7 12.7 -33.5 22.7 l-27.1 18.2 -6 0 c-5.3 0 -7.5 -0.7 -16.4 -5 -5.6 -2.8 -13.3 -6.8 -16.9 -9 -7.5 -4.3 -26.3 -14.6 -36.1 -19.8 -3.6 -1.8 -13.2 -7 -21.5 -11.5 -8.2 -4.4 -21.1 -11.3 -28.5 -15.3 -7.4 -4 -14.2 -7.9 -15.1 -8.7 -0.9 -0.7 -3 -1.9 -4.8 -2.5 -3.3 -1.2 -21.7 -11.3 -23.8 -13.2 -1.9 -1.6 -1.6 -7.4 0.5 -9.2 0.9 -0.8 6.9 -4.5 13.2 -8.2 6.3 -3.7 12.2 -7.1 13 -7.6 17.2 -10.4 11.5 -11.2 87.5 12.5 15.7 4.9 27.6 8.5 54.4 16.4 5.7 1.7 11.2 3.1 12.2 3.1 1 0 4.7 1.1 8.1 2.4 3.5 1.2 8.7 2.9 11.5 3.5 5 1.2 5.5 1.2 10 -1.4 2.7 -1.5 8.2 -4.5 12.3 -6.7 4.1 -2.2 12.7 -6.9 19.1 -10.5 13.9 -7.6 19.6 -9.9 29.9 -11.9 4.2 -0.8 10.9 -2.5 14.8 -3.9 4 -1.4 8.7 -2.5 10.7 -2.5 l3.5 0 0 5.3 c0 4.7 -0.8 6.6 -7.1 17.7 -4 6.9 -8.8 15.4 -10.8 19 -2 3.6 -6.7 11.4 -10.4 17.3 -11.4 18 -22.4 40.4 -23.1 46.7 -0.8 6.8 -3.6 68.6 -3.6 79.3 0 7 -0.2 7.7 -2 7.7 -1.9 0 -2 -0.7 -2 -9.7 0.1 -20.6 3 -82 4.1 -85.3 0.6 -1.9 2.4 -6.3 4 -9.8 1.6 -3.5 2.9 -6.5 2.9 -6.8 0 -0.3 1.5 -2.9 3.3 -5.7 1.9 -2.9 7.4 -11.8 12.3 -20 4.9 -8.1 10.2 -16.9 11.8 -19.5 1.6 -2.6 5.3 -9.4 8.4 -15.2 3 -5.8 5.9 -10.9 6.3 -11.4 1.5 -1.7 1 -3.6 -1.1 -3.6 -1 0 -4.3 0.9 -7.2 2.1 -2.9 1.1 -8 2.5 -11.2 3 -9.3 1.5 -19.3 5.5 -29.6 11.6 -9.8 5.9 -19.9 11.2 -21.3 11.3 -0.5 0 -4.2 2 -8.3 4.5 -4.1 2.5 -8.6 4.5 -10.1 4.5 -4.5 -0.1 -18.3 -3.6 -24.8 -6.4 -3.3 -1.4 -7 -2.6 -8.2 -2.6 -1.2 0 -4.2 -0.6 -6.5 -1.4 -2.4 -0.8 -12.4 -3.7 -22.3 -6.6 -9.9 -2.8 -25 -7.4 -33.5 -10.2 -8.5 -2.8 -18.4 -5.8 -22 -6.8 -3.6 -0.9 -14.1 -4 -23.4 -6.9 -9.3 -2.8 -18.2 -5.1 -19.8 -5.1 -4.6 0 -39.4 19.4 -40.5 22.6 -0.2 0.5 1.8 2 4.4 3.4 2.6 1.4 7.7 4.4 11.2 6.7 3.6 2.4 7.3 4.3 8.2 4.3 0.9 0 2.2 0.7 2.9 1.5 0.7 0.8 2 1.5 2.9 1.5 0.9 0 5.7 2.3 10.6 5.2 5 2.8 12.8 7.1 17.5 9.6 4.7 2.4 9 4.8 9.5 5.2 0.6 0.4 5.3 3 10.5 5.8 15.1 7.9 23 12.2 30.7 16.9 3.9 2.3 7.4 4.3 7.8 4.3 0.4 0 7.4 3.6 15.6 8.1 12.5 6.8 24.5 11.9 27.9 11.9 0.4 0 6.5 -3.8 13.4 -8.4 12 -8 16.9 -11.2 27.6 -18.1 2.6 -1.6 11.7 -7.9 20.3 -13.8 15.8 -10.9 20.3 -13.2 22.8 -11.7 1 0.7 1.1 1.4 0 3.7 -1.8 3.9 -12.1 17.2 -14.3 18.4 -1 0.5 -2.5 2.4 -3.4 4.2 -0.9 1.8 -2 3.4 -2.3 3.7 -0.6 0.5 -9.9 11.2 -14.2 16.4 -5.4 6.5 -12.8 14.7 -23.1 25.5 l-10.9 11.4 0.6 4.1 c0.4 2.3 1.5 6 2.6 8.4 1 2.4 2.1 6 2.5 8 0.3 2 1.9 9.3 3.4 16.2 1.5 6.9 3.1 14.8 3.5 17.5 0.3 2.8 1.6 8.6 2.7 13 4.7 18.5 8.1 32.8 10.7 45.5 1.6 7.4 3.3 15.3 3.9 17.5 0.6 2.2 1.8 8.5 2.8 14 2.8 16.4 5 19.8 9.3 14.9 1.4 -1.7 3.8 -3.8 5.4 -4.7 1.5 -1 2.7 -2.4 2.7 -3.2 0 -0.8 1 -2 2.3 -2.6 2.3 -1.3 4 -3.4 4.4 -5.9 1.3 -8.1 2.4 -27.2 2.8 -49.5 0.7 -30.8 0.9 -33.5 3.2 -33.5 1.4 0 1.5 3 0.9 31.8 -0.4 17.4 -1.1 37.3 -1.5 44.1 -0.7 12.1 -0.8 12.4 -3.7 14.8 -1.6 1.3 -3.2 2.7 -3.6 3.1 -12.2 13.5 -13 14.2 -17.4 14.2 -2.4 0 -4.5 -0.3 -4.8 -0.8z"/>
  <path d="M1098.2 257.7 c-0.6 -0.7 -1.6 -2.6 -2.2 -4.2 -1.8 -4.6 -11 -37.3 -11 -39 0 -1 -1 -1.5 -3 -1.5 -1.7 0 -11.7 -2.5 -22.3 -5.5 -10.6 -3.1 -23.5 -6.7 -28.7 -8.2 -13.2 -3.7 -13.2 -3.7 -12.8 -8.5 0.3 -4 0.5 -4.2 5.3 -5.8 2.8 -1 7.5 -2.9 10.6 -4.4 3.3 -1.5 7.3 -2.6 9.8 -2.6 4.4 0 45.8 8 54.9 10.6 2.8 0.8 5.2 2 5.2 2.7 0 0.7 1 1.7 2.3 2.2 2 0.9 2.4 2.5 4.4 16 1.3 8.3 2.6 21.5 2.9 29.5 l0.7 14.6 -3.2 2.7 c-2.4 2 -4.3 2.7 -7.6 2.7 -2.3 0 -4.7 -0.6 -5.3 -1.3z m10.1 -6.9 c2 -2.6 2 -2.7 -0.2 -22 -2.3 -20.9 -3.7 -28.8 -5.2 -28.8 -0.5 0 -3.5 2.5 -6.6 5.5 l-5.6 5.6 0.6 5.7 c0.4 3.2 1.7 9.1 3.1 13.2 1.3 4.1 2.7 9.4 3.1 11.7 0.8 4.9 5.4 12.5 7.4 12.1 0.8 -0.2 2.3 -1.5 3.4 -3z m-17.9 -48.9 c3.1 -3.4 5.6 -6.5 5.6 -7 0 -1.4 -8.3 -3.8 -19.5 -5.8 -6 -1.1 -13 -2.4 -15.5 -3 -2.5 -0.5 -7.5 -1.5 -11.2 -2.1 -6.5 -1 -7 -0.9 -15.8 2.6 -8.3 3.3 -11.2 5.4 -7.5 5.4 0.8 0 2.3 0.4 3.3 1 0.9 0.5 8.7 2.7 17.2 5 8.5 2.2 16.2 4.4 17 4.7 4.1 1.7 15.8 5.1 18.1 5.2 2.1 0.1 4 -1.3 8.3 -6z"/>
 </g>
 <g fill="#30a388">
  <path d="M179 751.6 c0 -0.3 2.6 -2.1 5.7 -4 3.2 -2 5.2 -3.6 4.6 -3.6 -0.7 0 -2.9 1.1 -4.9 2.5 -4.2 2.9 -6.2 3.1 -7 1 -0.4 -0.8 -1.2 -1.5 -1.9 -1.5 -3 0 -2.5 -4 1.5 -11.7 2.2 -4.3 4 -8.6 4 -9.5 0 -0.9 0.6 -4.1 1.4 -7.1 0.8 -3 1.9 -9.7 2.5 -14.8 1 -8.4 1 -10.2 -0.8 -16.9 -1.1 -4.1 -1.7 -5.5 -1.3 -3 0.4 2.5 0.7 9.5 0.6 15.5 -0.1 13.2 -2.6 24.1 -8 34.8 -2 3.9 -4 8.3 -4.4 9.7 -0.8 2.3 -0.8 2.3 -0.9 -0.8 -0.1 -1.9 1.4 -6 3.5 -10.2 2 -3.8 4 -8.6 4.4 -10.7 5.1 -24.6 5.2 -26.2 1 -40.8 -8.5 -29.7 -10 -38.1 -8.4 -47.8 0.6 -3.4 0.9 -3.7 3.9 -3.7 3.2 0 3.3 0.1 6.8 10.3 7.2 21.1 11.9 34.2 12.7 35.2 0.4 0.6 1.1 2.8 1.5 5 l0.8 4 0.9 -3 c1.4 -4.7 1.1 -13.6 -0.6 -19.5 -2.2 -7.4 -2 -21.7 0.4 -33.7 1.1 -5.4 2.5 -13.8 3.1 -18.7 1 -7.4 1.6 -9.3 3.9 -11.7 3.9 -4.1 6.2 -4 4 0.2 -0.7 1.3 -0.7 1.9 0 1.9 0.5 0 1 -0.6 1 -1.2 0 -0.9 0.4 -0.8 1 0.2 0.8 1.2 1 0.9 1 -1.2 0 -1.6 0.5 -2.8 1 -2.8 1.3 0 1.2 15.9 0 22 -0.6 2.5 -1.5 7.1 -2 10.2 -0.6 3.1 -1.9 7.6 -3 10 l-2 4.3 0.4 -5.5 0.3 -5.5 -2 4.5 c-1.2 2.6 -2.2 7.5 -2.5 11.5 -0.4 6.7 -0.3 7.1 2 8.2 2.3 1 2.4 0.9 2 -1.8 -0.5 -3.5 1.2 -10.3 4.3 -17.4 1.3 -2.7 2.6 -6.1 2.9 -7.5 0.4 -1.4 1.1 -3.4 1.7 -4.5 0.5 -1.1 2 -5.1 3.3 -9 3.1 -8.9 9.5 -23.5 11.2 -25.5 0.7 -0.8 2.5 -4.3 4 -7.8 1.9 -4.5 3.3 -6.4 5 -6.8 1.3 -0.3 2.4 -1.2 2.4 -2 0 -0.8 0.9 -1.4 2.1 -1.4 1.9 0 1.9 0.1 -0.5 3.3 -2.3 3.1 -2.4 3.3 -0.6 3.3 1.3 0 2 -0.7 2 -1.8 0 -1 0.5 -1.8 1 -1.8 0.6 0 1 -0.7 1 -1.5 0 -0.8 0.5 -1.5 1 -1.5 0.6 0 1 1.8 1 4 0 2.2 -0.4 4 -0.9 4 -0.5 0 -1.1 2.1 -1.5 4.8 -0.3 2.6 -2 7.6 -3.6 11 -1.7 3.5 -3 7.2 -3 8.2 0 1 -1.3 4.8 -3 8.5 -5.1 11.3 -3.3 9.5 3 -3.1 3.3 -6.5 6 -12.3 6 -12.8 0 -1.2 6.7 -11.4 10.4 -15.7 1.7 -2 4.5 -5.4 6.1 -7.5 5.8 -7.4 9.2 -10.4 12.1 -10.4 2.5 0 2.6 0.1 1.2 1.8 -0.8 0.9 -1.3 2.5 -1 3.6 0.3 1.6 0.6 1.5 2.3 -1 1.6 -2.5 1.9 -2.6 1.9 -0.9 0 3.9 -1.9 8.6 -6 14.8 -3.4 5.2 -3.5 5.6 -0.8 2.2 4.9 -5.9 7.8 -8.6 14 -12.9 3.1 -2.2 6.2 -5 6.9 -6.3 0.8 -1.5 2.1 -2.3 3.8 -2.3 2.4 0 1.9 0.7 -4.6 7.1 -4 3.8 -7.3 7.2 -7.3 7.4 0 1 9.6 -6.9 11.3 -9.4 l1.9 -2.6 -0.6 3.5 -0.6 3.5 2.1 -3 2.1 -3 -0.6 4.7 c-0.6 5.3 -0.7 5.3 7.9 1 9.7 -4.9 19.4 -9.1 24.8 -10.6 3.1 -0.9 8.2 -2.3 11.2 -3.1 7.5 -2.2 14.5 -2.9 19.8 -2.1 6.5 1 7.2 3.5 6.4 24 -0.8 19.9 -4.2 41.1 -8.2 50.9 -0.4 1 -0.3 1.7 0.4 1.7 0.6 0 1.1 -0.5 1.1 -1.2 0 -0.6 0.3 -0.9 0.6 -0.5 0.3 0.3 -0.5 2.1 -1.9 3.9 -1.3 1.8 -3.2 4.7 -4.2 6.3 -1.5 2.5 -1.1 2.3 2.3 -1.2 4.6 -4.8 7.7 -5.7 6.7 -2 -0.3 1.3 0.2 0.8 1.4 -1.3 l2 -3.5 0.1 3.4 c0 6.8 -4.5 13.2 -21.2 29.8 -3.4 3.4 -3.2 4.1 0.5 2.2 2.4 -1.2 11.3 -10.5 19.9 -20.6 3.3 -3.9 6.1 -6.2 7.4 -6.2 1.2 -0.1 2.2 0.5 2.1 1.2 0 0.6 0.1 2.1 0.2 3.2 0.2 1.8 0.3 1.8 1.6 -0.5 1.4 -2.4 1.4 -2.4 1.5 2.3 0 4.1 -0.7 5.9 -4.3 11.5 -2.4 3.7 -6.5 8.7 -9.1 11.2 -2.6 2.5 -6.3 6 -8.1 7.8 -1.9 1.7 -4.1 3.2 -5 3.2 -0.8 0 -2.9 1.4 -4.7 3 -1.7 1.7 -3.5 3 -3.9 3 -0.4 0 -2.4 1.1 -4.4 2.4 -2 1.4 -5.3 3 -7.3 3.6 -4.9 1.5 -16.4 7.1 -15.8 7.7 0.8 0.8 11.8 -1.9 17.1 -4.2 2.8 -1.2 6.7 -2.5 8.8 -2.9 2 -0.4 4.8 -1.7 6.1 -2.9 3.7 -3.4 10.9 -6.7 14.7 -6.7 l3.4 0.1 -2.7 1.5 c-3.4 1.8 -3.6 2.4 -0.6 1.6 1.8 -0.4 2 -0.2 1.5 1.7 -0.5 2.2 -0.5 2.2 1.4 0.5 1.8 -1.6 1.9 -1.6 1.9 0.7 0 3.2 -4.8 7.7 -12 11.5 -3 1.6 -6.1 3.4 -6.8 4.1 -0.6 0.6 -2.2 1.5 -3.5 1.8 -1.2 0.4 -5.3 2.1 -9 3.7 -3.8 1.6 -13.2 5.2 -21 8 -12.3 4.4 -15.6 5.2 -24.7 5.8 l-10.5 0.7 11 0.1 c12.6 0.2 30 -1.9 36.4 -4.2 2.4 -0.9 5.8 -1.6 7.5 -1.6 2.2 0.1 0.2 1 -6.6 3.4 -12.4 4.1 -15.6 6.6 -4.3 3.1 2.7 -0.8 5.2 -1.2 5.7 -0.9 0.4 0.3 0.8 0.1 0.8 -0.4 0 -1.5 5 -2.4 6.4 -1.3 0.9 0.7 1.6 0.7 2.5 -0.2 1 -1 1.2 -0.5 0.9 2.3 -0.3 3 -0.7 3.6 -3.8 4.3 -5.5 1.5 -21.4 6.9 -22.5 7.8 -2.3 1.7 -17.1 3.9 -26.2 3.9 -5.4 0 -19.5 -0.5 -31.3 -1.1 -18.8 -1 -23.4 -1 -37.5 0.6 -13.2 1.4 -17.1 2.2 -22.4 4.6 -3.5 1.6 -6.7 2.9 -7.2 2.9 -0.4 0 -2.5 1.1 -4.5 2.5 -3.1 2.1 -8.4 3.4 -8.4 2.1z m20 -10.7 c1.4 -0.5 6.1 -1.5 10.5 -2.4 l8 -1.4 -7.5 0.5 c-5.1 0.3 -9.1 1.3 -12.5 3 -4.7 2.3 -4.3 2.4 1.5 0.3z m112.6 -5.8 c6.7 -2.2 17.4 -7 16 -7 -1.2 -0.1 -12.8 4 -14.1 5 -0.5 0.4 -4.6 1.5 -9 2.4 -6.5 1.4 -11.6 1.6 -27 1.2 -20.8 -0.5 -21.3 0 -1 1.1 15.8 0.9 27.3 0 35.1 -2.7z m-86.8 1.2 c-1 -0.2 -2.8 -0.2 -4 0 -1.3 0.2 -0.5 0.4 1.7 0.4 2.2 0.1 3.2 -0.1 2.3 -0.4z m22.7 -1.3 c-4.3 -0.3 -10.9 -0.3 -14.5 0 -4.8 0.5 -2.7 0.7 8 0.7 12.1 0 13.2 -0.1 6.5 -0.7z m37.1 -13.6 l8.9 -1.1 -6.2 -0.2 c-7.2 -0.1 -8.6 -1.4 -4.3 -3.6 1.6 -0.8 3 -1.8 3 -2.1 0 -0.3 -2.1 0.6 -4.6 2.1 -4.5 2.6 -4.6 2.6 -4.2 0.5 0.3 -2.3 2.9 -3.9 14.3 -9.1 3.8 -1.7 8.4 -4.2 10.1 -5.5 1.7 -1.3 3.6 -2.4 4.2 -2.4 1.8 0 1.4 2.7 -0.4 3.4 -0.9 0.4 -1.4 0.9 -1.1 1.2 0.3 0.4 2 -0.5 3.7 -2 1.8 -1.5 4.5 -2.6 6.3 -2.7 2 -0.1 2.5 -0.3 1.3 -0.6 -1.5 -0.4 -0.9 -1.1 3 -3.6 2.7 -1.6 6.9 -4.1 9.4 -5.4 3.6 -1.9 3.9 -2.2 1.5 -1.7 -1.6 0.4 -5.8 2.2 -9.3 4.1 -3.5 1.8 -6.6 3.3 -6.8 3.3 -1.5 0 0.3 -3.4 4.9 -9 4.6 -5.8 9 -13.5 11.9 -21 0.5 -1.4 2 -4.6 3.4 -7.3 1.3 -2.6 2.4 -5.4 2.4 -6.2 0 -2.8 5.3 -17.9 7.2 -20.5 1 -1.4 2.2 -5 2.8 -8 0.5 -3 2.1 -11.8 3.5 -19.5 3.3 -18.4 3.7 -29.5 1.1 -32.4 -2.4 -2.6 -5.3 -2.6 -15.2 0 -4.3 1.2 -10.5 2.7 -13.6 3.5 -3.2 0.8 -7.4 2.5 -9.4 3.9 -2 1.4 -4.1 2.5 -4.5 2.5 -0.9 0 -5.5 2.2 -17.4 8.3 -3.8 2 -8 3.7 -9.2 3.7 -1.1 0 -3.9 1.5 -6.1 3.3 -2.2 1.7 -6.9 5.5 -10.5 8.2 -3.7 2.8 -6.6 5.6 -6.7 6.3 0 0.6 -0.4 1.2 -1 1.2 -1.5 0 -1.2 3 0.3 3.1 1.9 0.2 2 0.2 4.7 -0.6 1.4 -0.3 -1.1 1.4 -5.5 3.9 -7 3.9 -8.1 4.3 -9.2 2.9 -1.5 -1.9 -4.2 -1 -3.9 1.2 0.1 1 -0.9 2.9 -2.3 4.5 -1.4 1.5 -3.7 3.9 -5 5.4 -1.3 1.4 -2.7 2.6 -3.2 2.6 -1.8 0 -0.8 -1.9 3 -5.3 4.3 -3.9 4.3 -4.9 0 -4 -2.8 0.5 -2.8 0.5 -1.6 -2.3 0.7 -1.5 3.1 -6.6 5.5 -11.2 2.3 -4.7 4.2 -8.8 4.2 -9.1 0 -1.1 -4.2 6.3 -8.8 15.4 -5.3 10.5 -8 14.7 -9.1 14 -0.5 -0.2 -1.4 0.8 -2 2.3 -0.7 1.5 -4.1 7 -7.7 12.4 -6 9.1 -9.3 17.6 -8.1 21.1 0.2 0.6 0.7 -0.8 1.2 -3.3 1 -6.3 3.8 -11.9 7.9 -16.5 5.4 -5.9 5.5 -3.3 0.2 4.5 -5.2 7.6 -5.7 9.5 -7.5 30.1 -0.9 10.3 -2.3 14.9 -4.8 14.9 -0.8 0 -0.9 -0.9 -0.3 -3.2 0.8 -2.9 0.8 -3.1 -0.4 -1.5 -0.8 1 -2 1.5 -3 1.1 -1.2 -0.4 -1.6 0 -1.6 1.6 0 1.1 -0.4 1.8 -1 1.5 -1.1 -0.7 -0.2 2.3 1.2 4.2 0.5 0.6 1.3 2.4 1.8 4 0.8 2.8 0.8 2.8 0.9 0.3 0.1 -1.4 0.6 -3.2 1.1 -4 0.7 -1.1 1 0.5 1 5 0 3.7 -0.5 7.1 -1.1 7.7 -0.7 0.7 2.1 0.9 9.1 0.5 5.6 -0.3 12.5 0 15.3 0.6 2.9 0.6 13.1 1.5 22.7 2.1 18.7 1 28 2.8 16 3.1 l-6.5 0.2 6.2 1.2 c3.5 0.7 6.6 1.6 7 2 0.4 0.4 1 -0.1 1.4 -1.1 0.5 -1.4 2.4 -2 9.5 -2.9z m-50.1 -0.4 c0.3 -0.6 -0.4 -1 -1.8 -1 -1.4 0 -4 -0.2 -5.8 -0.5 -3.3 -0.4 -3.3 -0.4 0.6 0.9 4.9 1.8 6.2 1.9 7 0.6z m20.3 0.3 c-1.5 -0.2 -4.2 -0.2 -6 0 -1.8 0.2 -0.6 0.4 2.7 0.4 3.3 0 4.8 -0.2 3.3 -0.4z m-54.5 -1 c-1.7 -0.6 -1.6 -2.1 0.2 -5.8 l1.5 -3 -2 2.4 c-2.8 3.3 -2.6 7.2 0.4 7 0.6 0 0.5 -0.3 -0.1 -0.6z m20.5 -2 c-1.5 -0.2 -4.2 -0.2 -6 0 -1.8 0.2 -0.6 0.4 2.7 0.4 3.3 0 4.8 -0.2 3.3 -0.4z m129.8 -24.3 c0.7 0 1.4 -0.7 1.8 -1.5 0.5 -1.3 0.2 -1.4 -2.2 -0.1 -1.5 0.7 -3.4 1.6 -4.2 2 -0.8 0.3 -0.4 0.4 1 0.1 1.4 -0.2 3 -0.5 3.6 -0.5z m-149.4 -27.7 c-0.9 -5.5 -1 -5.1 -1 5.2 0 9.9 0.1 10.5 1 5.8 0.6 -3.2 0.6 -7.3 0 -11z m150.7 10 c0.2 -0.2 0 -0.3 -0.6 -0.3 -0.6 0 -2.1 0.9 -3.4 2.1 l-2.4 2 3 -1.7 c1.7 -1 3.2 -1.9 3.4 -2.1z m10.2 -7.9 c0.9 -1.1 0.2 -0.9 -1.8 0.6 -1.8 1.3 -3.3 2.5 -3.3 2.7 0 0.8 3.8 -1.7 5.1 -3.3z m-7.8 -15.9 l5.2 -6 -5 4.4 c-2.8 2.5 -5.4 5.2 -5.9 6 -0.6 0.9 -2 2.4 -3.3 3.4 -1.3 1 -2.8 2.8 -3.4 4 -1.5 2.9 5.6 -3.9 12.4 -11.8z m-4.9 -6 c-0.3 -0.7 0 -2.4 0.6 -3.7 1 -1.9 1 -2.1 -0.1 -1.1 -1.4 1.4 -2.2 7.6 -0.8 6.8 0.4 -0.3 0.6 -1.2 0.3 -2z m6.5 -16 c0 -0.5 -0.8 0.6 -1.9 2.5 -1.1 1.9 -1.9 4 -1.9 4.5 0 0.6 0.8 -0.6 1.9 -2.5 1.1 -1.9 1.9 -3.9 1.9 -4.5z m-127.1 -9 c0 -2.9 0 -2.9 -0.8 0.5 -0.4 1.9 -1 4.4 -1.4 5.5 -0.5 1.3 -0.2 1.1 0.8 -0.5 0.8 -1.4 1.5 -3.8 1.4 -5.5z m134.1 -13.5 c0 -0.8 -0.7 0.5 -1.5 3 -0.7 2.5 -1.3 5.2 -1.3 6 0 0.8 0.7 -0.5 1.5 -3 0.7 -2.5 1.3 -5.2 1.3 -6z m-103.8 -3.1 c2.1 -1.7 3.9 -3.5 3.9 -4 0 -0.6 1.6 -3.6 3.5 -6.7 3.5 -5.6 3.5 -5.6 0.5 -2.2 -5.6 6.4 -13 16 -12.4 16 0.3 0 2.4 -1.4 4.5 -3.1z m105.6 -10.6 c-0.3 -1 -0.5 -0.2 -0.5 1.7 0 1.9 0.2 2.7 0.5 1.8 0.2 -1 0.2 -2.6 0 -3.5z m1 -9 c-0.2 -1.6 -0.4 -0.5 -0.4 2.2 0 2.8 0.2 4 0.4 2.8 0.2 -1.3 0.2 -3.5 0 -5z m0.3 -27.4 c-0.7 -1.5 -2.2 -3 -3.6 -3.3 -2.5 -0.7 -11.3 1.1 -19.4 3.9 -5.5 1.9 -1.8 1.4 6.8 -1 4 -1 7.8 -1.4 10.2 -1 4.9 0.8 5.9 3.4 6.2 15.4 l0.2 8.6 0.3 -9.9 c0.2 -5.9 -0.1 -11.1 -0.7 -12.7z"/>
  <path d="M287.4 705 c3.3 -1.6 6.2 -2.8 6.3 -2.6 0.7 0.7 -8.5 5.6 -10.4 5.6 -1 0 0.9 -1.3 4.1 -3z"/>
  <path d="M274.8 702.4 c-1.5 -3.2 -0.7 -3.8 7.6 -5.4 3.4 -0.7 6.4 -1.7 6.9 -2.3 0.5 -0.9 1 -0.8 1.7 0.3 0.9 1.3 1.2 1.3 2 -0.2 1.3 -2.2 3.6 -1.4 3.6 1.3 0 1.6 -0.5 2 -2.4 1.6 -1.4 -0.3 -2.6 0.1 -2.9 0.9 -0.8 2.1 -7.4 5.5 -11.5 6 -3.4 0.3 -4 0 -5 -2.2z"/>
  <path d="M296.5 700 c0.3 -0.5 1.3 -1 2.1 -1 0.8 0 1.4 0.5 1.4 1 0 0.6 -0.9 1 -2.1 1 -1.1 0 -1.7 -0.4 -1.4 -1z"/>
 </g>
 <g fill="#8a3c4c">
  <path d="M192 806.1 c-22.2 -2.1 -41.7 -10.8 -55.9 -25 -9.5 -9.4 -13.9 -16.7 -18.7 -30.6 -3.7 -10.8 -4.5 -32 -1.9 -47.7 4.9 -29.3 18.8 -59 40.6 -86.8 10 -12.7 12.5 -15 16.5 -15 l3.4 0 0 5 c0 3.2 -0.7 6.3 -2.1 8.7 -17.8 31.5 -26.8 56.9 -26.9 76.5 -0.1 16.1 6.2 31.9 17.3 43.2 3.7 3.8 6.7 7.7 6.7 8.7 0 5.3 -9 -1.1 -16.6 -11.6 -12 -16.8 -15.3 -38.4 -9.5 -61.5 3.7 -15 7.7 -24.9 17.8 -44.9 4.6 -9.1 8.2 -16.9 8 -17.4 -0.7 -2.2 -18 20.5 -26.9 35.3 -6 9.9 -13.6 25.2 -16 32 -7.3 21 -10.7 43.3 -8.9 58.3 3.5 29.6 20 50.2 49.7 62 19.1 7.6 41.5 8.4 76.7 2.7 21.4 -3.4 62.8 -15.2 100.2 -28.5 7.2 -2.5 16.2 -5.7 20 -7 7.2 -2.5 27.2 -9.8 36 -13.3 2.8 -1.1 8.6 -3.3 13 -5 9.5 -3.6 13.1 -5.1 29 -12.4 6.6 -3.1 16.7 -7.7 22.5 -10.3 5.8 -2.6 24.5 -11.7 41.7 -20.2 17.1 -8.5 31.6 -15.4 32.2 -15.2 0.6 0.3 0.1 1.8 -1.1 3.8 -1.8 2.8 -7.3 5.9 -38.4 21.2 -19.9 9.8 -36.6 17.9 -37.1 17.9 -0.4 0 -3.9 1.6 -7.8 3.6 -8.7 4.3 -34.2 15.4 -35.6 15.4 -0.5 0 -2.8 0.9 -4.9 2 -5.1 2.6 -16.2 6.8 -47 17.6 -3.6 1.2 -9.2 3.4 -12.5 4.8 -3.3 1.3 -10.5 3.8 -16 5.5 -5.5 1.6 -16.7 5.3 -25 8.1 -24.2 8.4 -55.6 16.2 -73.6 18.4 -15.7 1.9 -37.9 2.7 -48.9 1.7z"/>
  <path d="M209.5 760 c-9.1 -1 -23.7 -4.5 -27.7 -6.6 l-3.1 -1.6 2.4 -1.9 c1.3 -1 3.1 -1.6 3.9 -1.3 20.9 8.5 47.3 8.5 84.6 0 10.9 -2.6 22.2 -5.3 24.9 -6.1 2.8 -0.8 10.6 -3.1 17.5 -5.1 6.9 -2 17.2 -5.2 23 -7.1 5.8 -1.9 15.3 -4.7 21.1 -6.3 5.9 -1.5 11.6 -3.3 12.7 -3.9 1.1 -0.6 4.8 -2.1 8.3 -3.4 48.2 -18 63 -23.8 88.8 -35.1 9.5 -4.2 19.5 -8.1 22.3 -8.7 2.9 -0.7 5.4 -1.9 6.1 -3 0.6 -1 1.6 -1.9 2.1 -1.9 1.2 0 14.5 -6 30.4 -13.6 8.3 -4 13.2 -6.9 13.2 -7.9 0 -0.8 0.5 -1.5 1 -1.5 0.6 0 1 0.7 1 1.5 0 1.6 2.1 2 3.5 0.6 0.6 -0.5 6 -3.5 12 -6.6 6.1 -3.2 12.2 -6.6 13.7 -7.6 1.4 -1.1 3.1 -1.9 3.7 -1.9 0.6 0 1.1 -0.4 1.1 -0.8 0 -0.5 4.2 -3 9.3 -5.6 5 -2.6 14.2 -7.4 20.2 -10.6 6.1 -3.3 12.2 -6.2 13.8 -6.5 1.5 -0.4 2.7 -1.2 2.7 -1.8 0.1 -0.7 8.3 -5.9 18.3 -11.6 10 -5.7 22 -12.8 26.7 -15.6 4.7 -2.9 11.9 -7.1 16 -9.5 4.1 -2.4 9.1 -5.3 11 -6.6 1.9 -1.2 13.6 -8.3 26 -15.7 12.4 -7.4 28.5 -17.4 35.8 -22.3 7.3 -4.9 14.5 -9.6 15.9 -10.4 5.1 -2.9 24.9 -16.3 41.1 -27.9 9 -6.4 20.9 -14.7 26.5 -18.6 5.6 -3.8 15.6 -11 22.1 -16 6.5 -4.9 17.1 -12.8 23.4 -17.5 16.2 -12 17.3 -12.8 25.4 -19.5 4 -3.3 8.9 -7.1 10.8 -8.5 1.9 -1.3 6.2 -4.6 9.5 -7.4 16.2 -13.8 29.8 -24.7 32.7 -26.2 1.5 -0.8 3.1 -2 3.5 -2.8 0.4 -0.8 6.1 -6 12.7 -11.5 6.5 -5.6 14.4 -12.6 17.5 -15.5 3.1 -2.9 12.6 -11.8 21.1 -19.7 8.5 -7.9 21.7 -20.4 29.2 -27.6 7.6 -7.3 14.8 -13.5 16.1 -13.8 1.3 -0.4 4.1 -0.5 6.3 -0.3 3.8 0.3 3.9 0.4 4.2 4.3 0.4 6.5 -0.2 7.3 -26.3 34.5 -17.3 17.9 -57.9 56.7 -77 73.7 -17.1 15.1 -74.3 63.8 -85.5 72.8 -6.1 5 -13.3 10.7 -15.8 12.7 -2.6 2.1 -7.6 5.9 -11.2 8.5 -3.6 2.6 -7.2 5.5 -8 6.4 -0.8 1 -5.2 4.2 -9.8 7.3 -10 6.8 -27.5 20 -29.2 22.1 -2 2.4 -5 1.9 -5 -0.9 0 -2.8 4.8 -7.1 21 -19 5.8 -4.2 14.1 -10.5 18.5 -14 4.4 -3.5 11.6 -9.1 16 -12.4 4.4 -3.4 10.7 -8.2 14.1 -10.9 3.3 -2.6 8.9 -7 12.5 -9.8 3.5 -2.7 9.9 -8.2 14.4 -12 4.4 -3.9 10.5 -9 13.5 -11.5 3 -2.5 9.6 -8.1 14.6 -12.5 4.9 -4.4 13.3 -11.6 18.4 -16 40 -34.1 119 -111.5 119 -116.5 0 -4 -3.5 -1.7 -17.4 11.8 -23.4 22.6 -43.9 42 -47.1 44.4 -1.6 1.3 -4.3 3.7 -6 5.4 -1.6 1.7 -5.2 5.1 -8 7.4 -2.7 2.3 -8.5 7.4 -12.9 11.4 -4.3 3.9 -8.5 7.5 -9.3 7.9 -1.9 1.2 -15.9 12.4 -26.9 21.8 -4.9 4.1 -11.6 9.5 -14.9 11.9 -3.3 2.4 -6.2 4.6 -6.5 4.9 -2.7 3.1 -69.1 52.8 -82 61.4 -4.7 3.2 -17.9 12.2 -29.5 20.2 -11.5 8 -25.7 17.5 -31.5 21.2 -5.8 3.7 -16.3 10.5 -23.5 15.3 -7.1 4.8 -17.9 11.5 -24 15 -6 3.4 -15.6 9.3 -21.3 12.9 -16.7 10.8 -23.6 15 -24.6 15.1 -0.4 0 -3.8 2 -7.5 4.4 -3.6 2.4 -14.7 8.9 -24.6 14.4 -9.9 5.4 -23.4 13 -30 16.7 -6.6 3.7 -16.7 9.2 -22.5 12.3 -12.5 6.5 -16.7 8.9 -29.7 16.4 -5.4 3.1 -12 6.7 -14.8 7.9 -2.7 1.2 -10.6 4.9 -17.5 8.2 -6.9 3.3 -18.3 8.6 -25.5 11.9 -7.1 3.3 -13.4 6.4 -13.9 6.9 -0.6 0.5 -1.9 0.9 -2.9 0.9 -1.1 0 -4.7 1.3 -8.1 3 -6.7 3.3 -51.2 22.3 -61.6 26.3 -3.6 1.3 -12.3 4.6 -19.5 7.2 -7.1 2.5 -14.1 5.1 -15.5 5.7 -5.7 2.3 -19.8 7.2 -24.5 8.3 -2.7 0.7 -10.2 3.2 -16.5 5.5 -19.8 7.1 -49.2 15.4 -80.4 22.6 -20.6 4.8 -44.6 7 -58.1 5.4z"/>
  <path d="M275.3 723.7 c0.2 -0.7 1.4 -1.4 2.6 -1.5 2.8 -0.4 2 1.3 -0.9 2.1 -1.4 0.3 -2 0.1 -1.7 -0.6z"/>
  <path d="M245 721.1 c-6.9 -0.4 -16 -1.4 -20.2 -2.1 -6.1 -1.1 -9 -1.1 -14.1 -0.2 -8 1.5 -11.7 1.5 -11.7 0.1 0 -0.6 0.7 -2.5 1.5 -4.2 1.9 -4.1 6.4 -26.2 7.1 -35.2 0.7 -8.9 2.9 -19.1 4.9 -23.2 1.6 -3.1 7.6 -10.3 8.8 -10.3 1.6 0 1 5.1 -1.1 10 -3.3 7.6 -3.4 8.2 -3.9 19.6 -0.4 8.3 -0.1 11.7 1.7 18.5 4.3 16.8 5.8 17.7 30.1 18.6 l17.4 0.6 9.4 -3.3 c5.2 -1.7 11.9 -4.6 15 -6.3 10.4 -5.6 10.9 -5.8 14.5 -5.2 2.6 0.5 3.3 1.1 2.9 2.3 -1.5 3.6 -7.7 7.9 -16.6 11.2 -3.1 1.2 -8.1 3.8 -11 5.8 -4.9 3.4 -5.7 3.6 -13.7 3.8 -4.7 0.1 -14.1 -0.2 -21 -0.5z"/>
  <path d="M309.7 701.2 c1 -0.7 1.7 -1.7 1.6 -2.1 -0.1 -0.3 0.7 -0.7 1.8 -0.7 1.2 0 1.9 0.7 1.9 1.8 0 1.9 -0.1 2 -4.3 2.2 -2.6 0.2 -2.7 0.1 -1 -1.2z"/>
  <path d="M579 667.2 c0 -2.2 2.2 -4.3 6.7 -6.6 4.2 -2.1 5.3 -2 5.3 0.4 0 1.1 -1.7 3.1 -4.4 5 -5.1 3.4 -7.6 3.8 -7.6 1.2z"/>
  <path d="M623 641.6 c0 -1.8 1.7 -3.4 7.8 -7.4 4.2 -2.8 10 -6.1 12.7 -7.4 2.8 -1.3 6.4 -3.3 8 -4.5 2.7 -1.9 23.1 -14.7 44 -27.6 4.4 -2.7 11.6 -7.3 16 -10.2 14.7 -9.6 14.5 -9.5 14.5 -4.6 0 2.2 -1.7 3.6 -10.8 9.4 -22.4 14.3 -42.1 26.5 -52.7 32.8 -6 3.6 -16.8 10 -23.8 14.2 -7.1 4.3 -13.5 7.7 -14.3 7.7 -0.8 0 -1.4 -1 -1.4 -2.4z"/>
  <path d="M226 632.1 c0 -3.6 2.8 -8.1 5.1 -8.1 2 0 2 0.1 -0.3 4.1 -3 5.4 -4.8 6.9 -4.8 4z"/>
  <path d="M761 553.5 c0 -1.8 1.2 -3.4 4.2 -5.5 4 -2.9 4.3 -3 5.5 -1.4 1.8 2.5 1.7 3 -1.9 5.5 -1.8 1.3 -3.4 2.7 -3.6 3.1 -0.2 0.4 -1.2 0.8 -2.3 0.8 -1.4 0 -1.9 -0.7 -1.9 -2.5z"/>
  <path d="M1179 344.8 c-1 -2.4 -3.4 -12.4 -12.6 -53.8 -2.9 -13.5 -7.4 -33.3 -9.9 -44 -2.5 -10.7 -5.7 -24.9 -7.1 -31.5 -1.4 -6.6 -3.2 -14.7 -4 -18 -0.8 -3.3 -1.7 -10.4 -2 -15.7 l-0.7 -9.7 9.4 -9.8 c13.8 -14.4 43 -48.3 41.5 -48.3 -0.6 0 -23.9 15 -27.6 17.8 -1.4 1.1 -8.9 6.3 -16.8 11.6 -13.8 9.3 -14.4 9.6 -19.9 9.6 -5.1 0 -7.2 -0.8 -24.2 -9.6 -10.2 -5.3 -19.4 -10.3 -20.3 -11.1 -0.9 -0.8 -4.3 -2.7 -7.5 -4.2 -3.3 -1.6 -7.7 -3.9 -9.9 -5.3 -2.1 -1.4 -9.3 -5.3 -15.9 -8.8 -6.6 -3.4 -18.8 -10 -27.1 -14.5 -8.2 -4.6 -18.2 -9.9 -22.2 -11.9 -3.9 -2 -7.6 -4.4 -8.1 -5.5 -0.6 -1.1 -2.7 -2.2 -4.8 -2.6 -2.1 -0.3 -4.8 -1.3 -6 -2.1 -1.2 -0.7 -3.7 -2.2 -5.5 -3.2 -1.8 -1.1 -5.9 -3.4 -9.1 -5.2 l-5.8 -3.2 0.3 -4.6 0.3 -4.6 13 -7.8 c7.2 -4.3 13.4 -7.8 13.8 -7.8 0.5 0 2.3 -1.1 4 -2.4 5.8 -4.3 11.4 -6.6 16.4 -6.6 6.4 0 12.6 1.7 61.8 17 10.5 3.2 23.1 7.1 28 8.5 11.3 3.4 21.6 6.5 37.5 11.5 6.9 2.1 17.4 5.2 23.3 6.9 l10.8 2.9 5.2 -3 c2.9 -1.7 6.3 -3.9 7.7 -4.8 1.4 -0.9 11.3 -6.2 22 -11.7 16.8 -8.8 20.9 -10.4 29.5 -12.3 5.5 -1.1 12.9 -3 16.4 -4 3.5 -1.1 8.5 -2 11.2 -2 l4.9 0 0 5.1 c0 4.6 -0.9 6.7 -7.5 18.5 -4.2 7.3 -8 13.6 -8.6 14 -0.6 0.3 -1.9 2.5 -2.8 4.8 -1 2.2 -4.9 9.1 -8.6 15.1 -8.1 13.1 -17.4 30.3 -21.6 40 -3 6.8 -3.1 7.8 -4.4 32 -1.8 32 -3.6 89.5 -2.9 90.6 0.5 0.8 -0.7 25.7 -2.5 52.7 -0.5 6.7 -1.4 12.9 -2.1 13.6 -0.6 0.8 -2.5 1.8 -4.1 2.1 -2 0.5 -2.9 1.3 -2.9 2.6 0 2.3 -8.2 11.5 -12.2 13.5 -4.2 2.2 -8.7 1.8 -9.8 -0.8z m16.5 -12.9 l9.9 -10 0.7 -13.7 c0.5 -7.5 1.3 -31.2 1.9 -52.7 1.1 -42.9 3.6 -101.9 4.6 -110.5 0.7 -6.3 11.7 -28.7 23.1 -46.7 3.7 -5.9 8.4 -13.7 10.4 -17.3 2 -3.6 6.8 -12.1 10.8 -19 3.9 -6.8 7.1 -13.5 7.1 -14.8 0 -2.6 -0.2 -2.6 -9.6 0.8 -2.8 1 -8.7 2.6 -13.1 3.4 -10.6 2 -16.2 4.2 -30.2 11.9 -6.4 3.6 -15 8.3 -19.1 10.5 -4.1 2.2 -10.1 5.4 -13.2 7.1 l-5.6 3.2 -7.4 -1.7 c-4 -0.9 -10.1 -2.7 -13.6 -4 -3.4 -1.3 -7.1 -2.4 -8.1 -2.4 -1 0 -6.5 -1.4 -12.2 -3.1 -26.8 -7.9 -38.7 -11.5 -54.4 -16.4 -50 -15.6 -63.4 -19.5 -67 -19.5 -2.3 0 -5.5 1.5 -14.5 7 -0.8 0.5 -7 4.1 -13.7 8.1 -12.9 7.5 -14.6 8.8 -13.5 10.5 1.1 1.5 27.2 15.8 27.2 14.9 0 -0.3 0.8 0.2 1.8 1.1 0.9 0.9 7.8 4.8 15.2 8.8 7.4 4 20.3 10.9 28.5 15.3 8.3 4.5 17.9 9.7 21.5 11.5 9.8 5.2 28.6 15.5 36.1 19.8 11.8 6.9 27.1 14 30.3 14 3.2 0 6.2 -1.9 57.3 -36.6 10 -6.8 19.8 -13.1 21.7 -14.1 7.2 -3.4 6 0.6 -3.7 12 -4 4.7 -10.2 12.3 -13.9 16.9 -12.8 16 -20.1 24.4 -31.3 35.8 -6.2 6.3 -11.8 12.5 -12.4 13.7 -1.2 2.4 -0.5 7.6 3.3 23.3 1.3 5.2 3.1 13.3 4.1 18 1 4.7 3.5 15.9 5.7 25 2.1 9.1 4.8 21 5.9 26.5 4.8 23.5 15.6 71.2 16.5 72.7 1.2 1.9 3.6 0.2 12.9 -9.3z"/>
  <path d="M1097.2 258.8 c-1 -1.3 -3.4 -8.9 -9.3 -29.8 -1.6 -5.8 -3.2 -11.3 -3.5 -12.2 -0.3 -1 -1.2 -1.8 -2.1 -1.8 -2.2 0 -58.8 -15.9 -64.6 -18.2 -2.6 -1 -2.8 -1.5 -2.5 -5.7 l0.3 -4.5 7 -2.6 c3.9 -1.5 8.9 -3.6 11.2 -4.8 5.2 -2.7 16.5 -3 26.3 -0.6 3.6 0.8 12.4 2.6 19.5 4 28.7 5.5 29.4 5.9 31.4 20 6.3 44.6 6.4 50.7 0.4 55.4 -3 2.3 -12.4 2.8 -14.1 0.8z m10.7 -5.4 c2.9 -2.4 3.1 -3 3.1 -9.2 0 -8.5 -4.9 -45.3 -6.2 -46.9 -0.8 -1 -3 0.5 -8.9 5.9 -4.3 3.9 -7.9 7.7 -7.9 8.4 0 1.6 9.3 34.6 11 38.9 2.4 6.2 4.3 6.8 8.9 2.9z m-15.1 -51.2 c4.5 -4.3 8.2 -8.1 8.2 -8.5 0 -1.1 -9 -3.3 -33.6 -8.2 l-24.1 -4.8 -6.4 3 c-3.5 1.7 -8.2 3.6 -10.4 4.3 -8.5 2.7 -7.5 3.9 6.5 8 5.8 1.6 18.8 5.4 29 8.4 10.2 3 19.4 5.4 20.5 5.5 1.3 0.1 5.2 -2.9 10.3 -7.7z"/>
 </g>
 <g fill="#1c1066">
  <path d="M0 445 l0 -445 649 0 649 0 0 445 0 445 -649 0 -649 0 0 -445z m639.5 422.5 c15.3 -1.8 35.9 -7 46 -11.5 1.1 -0.5 5.4 -2.3 9.5 -4.1 17 -7.3 36.4 -20.8 52.5 -36.6 28.2 -27.7 46.2 -61 54.1 -100.7 3.2 -15.9 3.9 -37 4.2 -131.1 0.3 -55.6 0.4 -61.1 2 -62.8 2.2 -2.5 19.2 -15.4 29.4 -22.3 4.6 -3.1 9 -6.3 9.8 -7.3 0.8 -0.9 4.4 -3.8 8 -6.4 3.6 -2.6 8.6 -6.4 11.2 -8.5 2.5 -2 9.7 -7.7 15.8 -12.7 11.2 -9 68.4 -57.7 85.5 -72.8 36 -31.9 97.4 -92.9 101.9 -101.3 2.2 -4.1 1.1 -6 -2.8 -5 -1.5 0.3 -8.8 6.6 -16.4 13.9 -7.5 7.2 -20.7 19.7 -29.2 27.6 -8.5 7.9 -18 16.8 -21.1 19.7 -3.1 2.9 -11 9.9 -17.5 15.5 -6.6 5.5 -12.3 10.7 -12.7 11.5 -0.4 0.8 -2 2 -3.5 2.8 -2.9 1.5 -16.5 12.4 -32.7 26.2 -3.3 2.8 -7.6 6.1 -9.5 7.4 -1.9 1.4 -6.8 5.2 -10.8 8.5 -8.2 6.7 -9.3 7.6 -25.4 19.5 -6.4 4.7 -17.6 13 -24.9 18.6 -7.4 5.6 -15.4 11.4 -17.9 12.9 -2.5 1.6 -8.5 5.8 -13.5 9.5 -16 11.9 -52.8 36.9 -68.5 46.5 -2.7 1.7 -8.6 5.5 -13.2 8.6 -4.6 3.1 -17.5 11.2 -28.8 17.9 -11.3 6.7 -22.1 13.2 -24 14.4 -1.9 1.3 -6.9 4.2 -11 6.6 -4.1 2.4 -11.3 6.6 -16 9.5 -8.9 5.4 -41.5 24.2 -46.2 26.6 -1.4 0.8 -6.6 3.7 -11.5 6.4 -4.9 2.8 -10.2 5.8 -11.8 6.7 -1.7 0.9 -7.5 4 -13 6.8 -5.5 2.9 -11.4 6.2 -13 7.5 -5 3.7 -22.1 12.4 -26.5 13.4 -8.7 1.9 -1.2 -3.6 18 -13.4 5.2 -2.7 9.7 -5 9.9 -5.2 0.2 -0.1 0.3 -81.6 0.2 -181 -0.1 -99.5 0.1 -183.2 0.5 -186.1 l0.7 -5.3 19.9 0.6 c11 0.4 21.3 0.3 22.9 0 l2.9 -0.7 0 -16.9 0 -16.9 -39.9 0 c-35.7 0 -40 0.2 -40.5 1.6 -0.3 0.9 -0.6 97.1 -0.6 213.8 l0 212.1 -10.7 5.3 c-11.7 5.6 -25 11.7 -29.8 13.4 -1.6 0.6 -3.6 1.9 -4.2 2.9 -0.7 0.9 -3.5 2.2 -6.2 2.8 -2.7 0.6 -12.7 4.5 -22.2 8.7 -25.8 11.3 -40.6 17.1 -88.8 35.1 -3.5 1.3 -7.2 2.8 -8.3 3.4 -1.1 0.6 -6.8 2.4 -12.7 3.9 -5.8 1.6 -15.3 4.4 -21.1 6.3 -5.8 1.9 -16.1 5.1 -23 7.1 -6.9 2 -14.7 4.3 -17.5 5.1 -2.7 0.8 -14 3.5 -24.9 6.1 -23.5 5.3 -38 6.8 -59.1 6.1 -14.6 -0.5 -18.4 -1.2 -29.3 -5.3 l-4.4 -1.6 4.4 -2.9 c6.2 -4.2 15.9 -7.7 26.3 -9.5 12.5 -2.2 37.4 -2.9 53.2 -1.5 18.2 1.6 34.8 1.5 42.4 -0.3 3.5 -0.8 11.1 -3.5 16.9 -5.9 5.8 -2.5 11.6 -4.8 13 -5.2 1.4 -0.4 4 -2.1 5.8 -3.6 1.8 -1.6 3.8 -2.9 4.5 -2.9 0.7 0 2.2 -0.7 3.3 -1.6 1.8 -1.4 1.7 -1.5 -2 -0.9 -2.2 0.4 -9.1 2.4 -15.5 4.5 -14.7 4.8 -26.7 6.5 -41.3 5.7 -6.2 -0.3 -12.3 -0.9 -13.6 -1.3 -4.7 -1.4 -1.2 -2.9 9.4 -4.1 15.4 -1.8 30.1 -6.4 51.9 -16 14 -6.2 23.4 -12.3 31.3 -20 4.1 -4.1 7.1 -7.7 6.8 -8.1 -0.4 -0.3 -1 -0.1 -1.4 0.5 -1.2 2 -24.2 14.4 -33.2 17.9 -8.9 3.6 -21.8 7.2 -26.7 7.6 -3.1 0.2 -5.6 -0.9 -4.8 -2.1 0.7 -1.3 13.2 -8.5 23.4 -13.7 5 -2.5 10.4 -5.6 11.9 -6.8 1.5 -1.3 3.8 -2.9 5.2 -3.6 4.4 -2.3 12.9 -10.1 18 -16.5 6.5 -8.2 16.1 -27.5 13.7 -27.5 -0.4 0 -2.6 3.1 -5.1 6.9 -4.3 6.6 -23.8 27.2 -30.2 31.8 -3.8 2.7 -11.3 5.8 -12.1 4.9 -1.2 -1.2 2.3 -6 11.5 -15.9 12.4 -13.2 16.4 -18.7 21.2 -29 6.2 -13.2 11 -35.3 8.1 -37.1 -0.7 -0.4 -1.1 0 -1.1 1.1 0 3.2 -6.1 21.5 -9.1 27.5 -3 5.9 -9.9 16 -14.9 21.8 -2.8 3.3 -3 3.3 -2.1 0.8 0.6 -1.5 2.2 -4.9 3.6 -7.7 8.7 -17.3 12.9 -36 14.2 -63 1 -23.7 0.3 -24.1 -27.6 -15.5 -10.4 3.3 -35.8 14.4 -47.4 20.9 -6.1 3.5 -6.2 1.8 -0.2 -5.9 2.5 -3.2 4.5 -6.2 4.5 -6.5 0 -0.4 1.6 -2.5 3.5 -4.7 5 -5.6 4.6 -7.1 -1 -3.5 -5.1 3.2 -22.6 21 -31.5 32 -11.9 14.7 -14.5 17.4 -15.8 17 -0.9 -0.3 -0.7 -1.4 0.6 -3.9 6 -11.4 11.4 -20.9 18.4 -31.9 4.2 -6.9 7.5 -12.7 7.3 -13 -1.4 -1.3 -19 19.1 -26.7 30.9 -3.5 5.5 -13.7 24 -17.2 31.4 -2.2 4.7 -7.6 10.8 -7.6 8.6 0.1 -0.8 0.7 -2.6 1.5 -4 0.8 -1.4 1.4 -4.4 1.5 -6.7 0 -2.3 1.4 -7.7 3 -12 1.7 -4.2 3 -8.4 3 -9.3 0 -0.8 1.1 -3.9 2.5 -6.8 1.4 -3 3.1 -7.7 3.9 -10.5 0.8 -2.9 2.1 -6.9 3 -8.9 0.9 -2.1 1.3 -3.8 0.9 -3.8 -2.2 0.2 -11.8 16.7 -19.4 33.5 -3.5 7.9 -14 35.8 -17 45.3 -2.1 6.5 -3.8 8.1 -4 3.5 -0.3 -11.4 1.8 -32.4 3.5 -35.1 0.3 -0.5 0.9 -5.1 1.5 -10.3 0.6 -5.2 1.3 -11.2 1.6 -13.4 0.6 -3.6 0.3 -3.3 -3.4 3.8 -3.1 6.3 -4.3 10.1 -5.6 18.5 -0.9 5.9 -2.3 14.2 -3.1 18.5 -1 5.2 -1.4 10.3 -1 15 1.2 13.2 1.8 51.2 0.8 50.2 -0.9 -1.1 -7.2 -16.8 -7.2 -18.2 0 -0.4 -2.5 -7.3 -5.6 -15.3 -3.1 -8 -6.8 -18.7 -8.2 -23.7 -1.4 -5.1 -2.9 -9.3 -3.3 -9.3 -0.4 0 -1.1 2.4 -1.4 5.3 -0.6 4.6 0.1 8.7 4.7 26.8 5 20.1 5.3 22.1 5.2 33.4 0 8.9 -0.5 14.1 -2.1 20.1 -2.6 9.7 -10.2 26.3 -12.2 26.4 -0.7 0 -4.3 -3 -8 -6.8 -15.2 -15.5 -20.1 -36.8 -15.2 -65.3 2.6 -14.8 11.6 -36.5 25 -60.3 1.2 -2.1 2.1 -4.8 1.9 -5.9 -0.3 -1.8 -0.6 -1.7 -3.7 1.4 -17.3 17.5 -38.4 53.2 -45.5 76.9 -9.7 32.6 -8.8 55.4 3.2 78.5 5.4 10.5 19.1 23.6 30.6 29.3 18.3 9.1 28.3 11.4 50.6 11.4 25.6 0 40.8 -2.4 79.5 -12.6 5 -1.3 15.8 -4.7 24 -7.6 8.3 -2.8 19.5 -6.5 25 -8.1 5.5 -1.7 12.7 -4.2 16 -5.5 3.3 -1.4 8.9 -3.6 12.5 -4.8 30.8 -10.8 41.9 -15 47 -17.6 2.1 -1.1 4.4 -2 4.9 -2 1.4 0 26.9 -11.1 35.6 -15.4 3.9 -2 7.4 -3.6 7.8 -3.6 0.5 0 18.2 -8.6 39.4 -19 21.2 -10.5 38.8 -18.8 39.1 -18.6 0.7 0.7 -2.5 5.4 -5.7 8.4 -5.6 5.4 -22.5 17.3 -30.8 21.8 -11 6 -31.8 15.4 -40.5 18.4 -3.7 1.2 -7.3 2.9 -8 3.7 -1.8 2.2 4.1 20.3 11.2 34.8 18.6 37.5 57.7 71.1 98 84.2 14.5 4.7 25.1 7.1 34.5 7.9 4.4 0.4 8.2 0.8 8.4 1 1 0.9 22.7 0.2 33.6 -1.1z m-34.7 -253.2 c7.9 -4 14.9 -7.3 15.6 -7.3 0.8 0 1.6 -1 2 -2.2 0.3 -1.3 0.6 -77.6 0.6 -169.5 l0 -167.3 -16.9 0 -16.8 0 -0.7 4 c-0.7 4.3 -0.5 329.1 0.2 342.3 0.2 4.3 0.7 7.7 1 7.5 0.4 -0.2 7.1 -3.6 15 -7.5z m128.6 -75.5 c2.8 -1.7 9.9 -6.3 15.9 -10.1 l10.7 -6.9 0 -130.3 c0 -71.7 0.3 -131 0.6 -131.9 0.5 -1.4 3.5 -1.6 22.4 -1.6 18.9 0 21.9 -0.2 22.4 -1.6 0.9 -2.5 0.7 -29.7 -0.3 -31.3 -0.8 -1.2 -6.9 -1.3 -39.7 -0.8 -21.3 0.4 -38.9 0.9 -39.3 1.2 -0.7 0.8 -1.5 313 -0.8 315 0.9 2.2 2.4 1.9 8.1 -1.7z m47 -30.7 c3.5 -2.6 10.2 -7.1 14.9 -10 4.7 -2.8 8.9 -5.9 9.3 -6.9 1 -1.9 1.8 -217.3 0.9 -220.9 l-0.6 -2.3 -16.7 0.2 -16.7 0.3 -0.2 121 c-0.2 66.6 -0.1 121.6 0.2 122.3 0.7 2 2.3 1.4 8.9 -3.7z m412.2 -171.3 c2.2 -2.4 4.8 -5.5 5.7 -7 0.9 -1.5 2.9 -3.3 4.4 -4 1.5 -0.7 3 -2.5 3.4 -4.1 0.7 -2.7 3.4 -49.9 3.2 -56.2 -0.2 -7.9 2 -76.8 3.2 -98.5 1.3 -23.6 1.4 -24.8 4.4 -31.5 4.2 -9.7 13.5 -26.9 21.6 -40 3.7 -6 7.6 -12.9 8.6 -15.1 0.9 -2.3 2.2 -4.5 2.8 -4.8 1.8 -1.2 16.1 -27.3 16.1 -29.5 0 -2.7 -1.9 -2.7 -10.1 -0.1 -3.5 1 -10.9 2.9 -16.4 4 -8.6 1.9 -12.7 3.5 -29.5 12.3 -10.7 5.5 -20.6 10.8 -22 11.7 -7.2 4.8 -13.4 8 -15.7 8 -2.9 0 -19.2 -4.4 -37.3 -10 -15.8 -5 -26.1 -8.1 -37.5 -11.5 -4.9 -1.4 -17.5 -5.3 -28 -8.5 -33.7 -10.5 -42.8 -13.2 -51.2 -15.3 -8.1 -2.1 -8.2 -2.1 -12.4 -0.2 -2.3 1.1 -5.9 3.2 -8 4.7 -2.2 1.6 -4.2 2.8 -4.6 2.8 -2 0 -26.8 15.8 -27.1 17.2 -0.2 1 2 2.9 6.5 5.4 3.7 2.2 7.3 4.1 7.8 4.3 0.6 0.2 2.2 1.2 3.7 2.3 1.5 1 5 2.5 7.7 3.4 2.7 0.8 5.1 2.1 5.5 2.9 0.3 0.8 3.8 3.1 7.7 5.1 4 2 14.1 7.3 22.3 11.9 8.3 4.5 20.5 11.1 27.1 14.5 6.6 3.5 13.8 7.4 15.9 8.8 2.2 1.4 6.6 3.7 9.9 5.3 3.2 1.5 6.6 3.4 7.5 4.2 3.4 2.9 39 20.7 41.5 20.7 2.2 0 21.9 -12.4 33.7 -21.1 3.8 -2.9 35.4 -24 41.6 -27.8 3 -1.8 5.7 -3.1 6.1 -2.8 0.7 0.7 -3.3 6.9 -6.9 10.7 -1.3 1.4 -6.1 7.2 -10.8 13 -12 14.9 -26.9 31.9 -37.8 43.3 l-9.5 9.8 0.7 6.7 c0.4 3.7 1.3 9.4 2 12.7 0.8 3.3 2.6 11.4 4 18 1.4 6.6 4.6 20.8 7.1 31.5 2.5 10.7 7 30.5 9.9 44 9.3 41.5 11.6 51.4 12.6 53.8 0.9 2.1 1.2 2.2 3.7 0.8 1.6 -0.8 4.6 -3.4 6.9 -5.8z m-84.3 -81.8 c3.3 -2.6 5 -7.8 4.3 -13.2 -0.3 -2.4 -1.3 -9.9 -2.1 -16.8 -2.8 -23.1 -4 -28.8 -6.4 -31.4 -2.5 -2.6 -8.4 -4.4 -27.6 -8 -7.1 -1.4 -15.9 -3.2 -19.5 -4 -9.2 -2.2 -15.3 -2 -20.3 0.6 -2.3 1.2 -7.3 3.3 -11.2 4.8 -7.7 2.8 -9.3 5.1 -4.8 6.8 5.8 2.3 62.4 18.2 64.6 18.2 0.9 0 1.8 0.8 2.1 1.8 0.3 0.9 1.9 6.4 3.5 12.2 5.9 20.9 8.3 28.5 9.3 29.8 1.5 1.8 5.2 1.5 8.1 -0.8z"/>
  <path d="M592.5 833.1 c-10.9 -2.4 -26.3 -7.6 -36 -12.1 -24.4 -11.5 -47 -32.8 -58.3 -54.8 -3.6 -7.2 -3.7 -7.3 -1.7 -8.8 1.1 -0.8 3.8 -1.9 6 -2.5 6.1 -1.7 23.8 -10.3 31.3 -15.3 7.4 -4.9 20 -17.2 26.2 -25.4 8 -10.8 15.1 -27.3 18 -42.5 1.1 -5.4 1.5 -6.1 5.8 -8.8 6.5 -4.1 7.3 -3.9 6.6 1.9 -2.2 17.1 -10.4 38.9 -20.1 53.4 -9.7 14.6 -29.2 31 -48.1 40.5 -5.2 2.5 -9.6 5.2 -9.9 6 -1.4 3.7 15.1 22.9 29 33.5 19.7 15.1 35.8 21.8 60.6 25.3 13.1 1.9 20 1.9 33.2 0 17.5 -2.4 36.4 -8.8 51.4 -17.3 16.4 -9.3 37 -28.2 46.7 -43.1 10.7 -16.4 20.9 -41.2 24.4 -59.4 1.2 -6.6 1.7 -21.9 2.5 -78.2 0.5 -38.5 1.1 -70.9 1.4 -72 0.6 -2.5 7.2 -6.8 9.2 -6.1 1.2 0.5 1.3 8.9 0.8 64.8 -0.3 35.4 -0.8 69.2 -1.1 75.1 -2.4 48.7 -29.1 96.2 -68.4 121.8 -20.7 13.5 -35.7 19.8 -56.8 23.9 -13.7 2.6 -40.8 2.7 -52.7 0.1z"/>
  <path d="M604 789.1 c-10.4 -1.5 -25.8 -7.8 -35.3 -14.4 l-5.9 -4.2 5.3 -4.4 c9.6 -8 27.4 -26.4 31.8 -32.8 10 -14.9 18.5 -36.3 21.6 -54.3 0.9 -5.3 1.7 -15.9 1.8 -23.9 l0.2 -14.5 11.7 -7 c6.5 -3.9 15.7 -9.3 20.4 -12.1 9.1 -5.2 38.1 -23.3 57.3 -35.7 6.2 -4 11.8 -7.5 12.4 -7.7 0.6 -0.2 0.8 18.1 0.4 53 -0.5 57.7 -1.1 64.7 -6.3 81.9 -5.5 17.9 -12.8 30.3 -26 44 -14.1 14.7 -32.5 25.6 -50.4 30 -9.4 2.3 -29.7 3.4 -39 2.1z"/>
  <path d="M251.1 695.5 c-8 -2.3 -10.9 -4.4 -13.8 -10.3 -5.5 -11.3 -2.4 -29.2 7.2 -41.4 5 -6.3 13.2 -11.1 22.3 -12.8 14.2 -2.6 31.1 7 36.5 20.8 1.8 4.6 2.2 13.4 0.8 19.6 -2.4 10 -13.2 19.8 -25.4 23 -9 2.4 -21.3 2.8 -27.6 1.1z"/>
 </g>
</svg>